<svg width="238" height="68" viewBox="0 0 238 68" fill="none" xmlns="http://www.w3.org/2000/svg">
<g clip-path="url(#clip0_104_241)">
<path d="M32.2334 67.7147C31.7337 67.5822 31.0237 66.114 30.2315 63.5745C29.3683 60.8076 28.6385 59.3523 27.7726 58.6715L26.5412 57.7035H18.4198H10.2984L9.38924 60.1675C8.88916 61.5228 8.11732 63.7406 7.67403 65.0959L6.86808 67.5599H3.33336C0.700771 67.5599 -0.144927 67.4103 0.0197224 66.9734C0.141312 66.6506 2.69466 58.5718 5.69383 49.0206C14.3298 21.5181 15.1449 19.1004 16.4991 16.9705C18.3537 14.0536 20.1494 13.1192 23.9042 13.1171L27.0108 13.1152L28.2276 14.0717C30.3309 15.7252 32.0893 20.2573 39.1469 42.2147C45.866 63.1196 47.3163 67.6748 47.3264 67.9117C47.335 68.1161 33.0432 67.9297 32.2334 67.7147ZM25.281 46.791C24.8129 45.1778 23.4045 40.3275 22.1511 36.0126C20.8978 31.6978 19.734 28.3185 19.565 28.503C19.3961 28.6876 18.9183 30.0002 18.5033 31.42C18.0883 32.8397 16.6073 37.5391 15.2121 41.863L12.6756 49.7248H19.4038H26.132L25.281 46.791ZM61.6369 67.5646C57.1317 66.903 54.9166 65.0334 53.6704 60.8393L52.9669 58.4718L52.9681 36.3803L52.9689 14.2887L53.79 12.6499C54.3558 11.5203 56.873 9.30045 61.8902 5.50554L69.1697 0L69.4604 8.78708C69.6207 13.62 69.8 26.2337 69.8594 36.8175C69.9188 47.4015 70.1139 56.5889 70.2929 57.2341L70.6176 58.4077L74.1204 58.5265C76.0467 58.5918 78.0765 58.7485 78.6314 58.8751C79.6636 59.1108 85.0672 67.2387 84.5408 67.7643C84.157 68.1481 64.4386 67.9762 61.6373 67.5646H61.6369ZM142.426 67.531C116.002 64.1701 112.112 23.8896 137.322 14.6785C151.579 9.46927 168.423 17.1358 172.557 30.716L173.414 33.532L173.42 40.5722L173.426 47.6125L172.347 50.735C168.468 61.9593 155.566 69.2021 142.427 67.531H142.426ZM155.58 51.8367C155.58 48.57 155.58 40.807 155.58 40.807C155.58 24.1068 153.717 20.9036 144.781 22.2428C139.512 23.0325 138.673 25.5175 138.675 40.3377C138.679 55.9187 139.896 58.5371 147.175 58.6125L150.041 58.6422C153.754 57.3353 155.58 55.1034 155.58 51.8367ZM94.5602 66.8174C92.1122 65.9213 91.0708 64.9377 89.8819 62.397L88.8936 60.2851L88.7513 41.3936L88.6095 22.5023H85.8164H83.0229V18.0435V13.5847H85.841H88.6587V7.01377V0.442883H96.6425H104.626V6.77909V13.1153H114.018C119.184 13.1153 123.402 13.2737 123.392 13.4673C123.382 13.661 121.636 15.6853 119.513 17.9658L115.652 22.1122L110.256 22.4246L104.861 22.737V40.2376V57.7383L105.565 58.183C105.953 58.4276 107.96 58.634 110.027 58.6414C112.093 58.6488 114.238 58.777 114.793 58.9259C115.672 59.1616 122.472 66.57 122.472 67.2915C122.472 67.4392 116.607 67.5451 109.44 67.5267L96.4076 67.4939L94.5602 66.8174ZM180.565 67.2633C180.384 67.0824 180.236 55.9339 180.237 42.4887L180.238 18.0435L181.059 16.4008C181.528 15.461 182.583 14.4069 183.523 13.9374L185.167 13.1168L190.663 13.1158C193.78 13.1154 196.668 13.3468 197.335 13.6504C198.684 14.265 198.768 14.4371 204.692 28.7092C209.997 41.4921 208.892 41.3975 213.06 29.425C218.958 12.4857 218.394 13.1153 227.668 13.1153C234.462 13.1153 236.289 13.6872 237.313 16.1341L238 17.7787V42.6692V67.5599H229.077H220.154L220.112 47.9646L220.071 28.3692L214.094 46.4393C207.761 65.5829 207.36 66.6212 206.293 66.6212C205.419 66.6212 205.15 66.0663 196.856 47.1611L189.863 31.2212L189.629 49.2734L189.394 67.3251L185.144 67.4591C182.807 67.5326 180.747 67.4443 180.565 67.2633Z" fill="#474747"/>
</g>
<defs>
<clipPath id="clip0_104_241">
<rect width="238" height="68" fill="white"/>
</clipPath>
</defs>
</svg>
