<svg width="128" height="70" viewBox="0 0 128 70" fill="none" xmlns="http://www.w3.org/2000/svg">
<path d="M52.0416 61.2378C52.0416 62.5129 51.8187 63.6864 51.3729 64.7569C50.927 65.8282 50.3086 66.7527 49.516 67.5317C48.7234 68.3108 47.7851 68.9174 46.701 69.3501C45.6168 69.7835 44.4358 69.9998 43.1585 69.9998H37.9282C36.6509 69.9998 35.4677 69.7835 34.3779 69.3501C33.2874 68.9174 32.3477 68.3108 31.5551 67.5317C30.7625 66.7527 30.1412 65.8282 29.6912 64.7569C29.2397 63.6864 29.0146 62.5129 29.0146 61.2378V57.2366C29.0146 55.9713 29.2397 54.7999 29.6912 53.7244C30.1412 52.649 30.7625 51.7238 31.5551 50.9496C32.3477 50.1754 33.2874 49.5695 34.3779 49.1313C35.4677 48.6937 36.6509 48.4746 37.9282 48.4746H43.1585C44.4358 48.4746 45.6168 48.6937 46.701 49.1313C47.7851 49.5695 48.7234 50.1754 49.516 50.9496C50.3086 51.7238 50.927 52.649 51.3729 53.7244C51.8187 54.7999 52.0416 55.9713 52.0416 57.2366V61.2378ZM48.1792 57.2366C48.1792 56.4867 48.0575 55.8078 47.8155 55.1991C47.5721 54.5912 47.2303 54.0702 46.7901 53.6368C46.3493 53.2034 45.8199 52.8681 45.2007 52.6288C44.5815 52.3909 43.9008 52.2713 43.1585 52.2713H37.9282C37.176 52.2713 36.4896 52.3909 35.8711 52.6288C35.2512 52.8681 34.7197 53.2034 34.2739 53.6368C33.8281 54.0702 33.4842 54.5912 33.2407 55.1991C32.9987 55.8078 32.877 56.4867 32.877 57.2366V61.2378C32.877 61.9877 32.9987 62.6666 33.2407 63.2753C33.4842 63.8832 33.8281 64.4042 34.2739 64.8376C34.7197 65.2717 35.2512 65.607 35.8711 65.8456C36.4896 66.0835 37.176 66.2031 37.9282 66.2031H43.128C43.8803 66.2031 44.5667 66.0835 45.1852 65.8456C45.8051 65.607 46.3365 65.2717 46.7823 64.8376C47.2282 64.4042 47.5721 63.8832 47.8155 63.2753C48.0575 62.6666 48.1792 61.9877 48.1792 61.2378V57.2366V57.2366Z" fill="#474747"/>
<path d="M89.3153 65.5169C89.0479 65.2546 88.9141 64.8748 88.9141 64.3781V61.1505H104.092V57.3239H88.9141V52.5638H104.998L99.9046 48.7671H86.9978C86.7204 48.7671 86.4628 48.8151 86.225 48.9132C85.988 49.0106 85.7813 49.1469 85.6087 49.3215C85.4353 49.4968 85.2987 49.7013 85.1997 49.9357C85.1013 50.1688 85.0518 50.4171 85.0518 50.68V64.3781C85.0518 65.3617 85.2322 66.1916 85.5938 66.8678C85.9554 67.5446 86.4062 68.0941 86.9454 68.5178C87.4854 68.9414 88.0727 69.2461 88.7061 69.4304C89.3401 69.6154 89.9246 69.708 90.4596 69.708H104.394V65.9113H90.4893C89.9749 65.9113 89.5828 65.7791 89.3153 65.5169" fill="#474747"/>
<path d="M127.377 48.7671H106.39L111.483 52.5638H115.002V69.7087H118.864V52.5638H127.377V48.7671Z" fill="#474747"/>
<path d="M80.2522 49.2193C79.9854 48.8791 79.6429 48.6496 79.2275 48.5327C78.7916 48.4263 78.3734 48.4506 77.9721 48.6064C77.5716 48.7622 77.2567 49.0245 77.0288 49.3946L70.6621 60.2733L72.8509 63.9997L76.7613 57.237V69.708H80.6534V50.3872C80.6534 49.9497 80.5204 49.5608 80.2522 49.2193" fill="#474747"/>
<path d="M62.6273 54.8804L62.6443 54.8706L59.4401 49.3947C59.3304 49.2097 59.1974 49.0518 59.0381 48.9203C58.8803 48.7888 58.7041 48.6866 58.5116 48.6135C58.3185 48.5405 58.1175 48.4967 57.9094 48.4821C57.7014 48.4675 57.4941 48.4849 57.286 48.5329C56.86 48.6497 56.5161 48.8793 56.2528 49.2194C55.991 49.561 55.8594 49.9498 55.8594 50.3874V69.7081H59.7224V57.2371L66.6001 69.0807C66.7685 69.3819 66.9992 69.6114 67.2915 69.7666C67.5837 69.9224 67.8979 70.0003 68.2341 70.0003C68.5815 70.0003 68.9056 69.9224 69.2078 69.7666C69.51 69.6114 69.7442 69.3819 69.9133 69.0807L70.4363 68.1764L62.6273 54.8804V54.8804Z" fill="#474747"/>
<path d="M65.6932 0L50.1567 8.93868V18.0394L66.5721 8.59574L69.978 10.7591L50.1567 22.177V26.8147L54.1918 29.1359L71.486 19.1858L74.8919 21.3499L57.7852 31.2033L65.6932 35.7527L81.229 26.8147V8.93868L65.6932 0V0Z" fill="#474747"/>
<path d="M26.0727 62.3476C25.9042 61.7348 25.6764 61.1846 25.3891 60.6976C25.1018 60.2107 24.7678 59.7829 24.3863 59.4128C24.0049 59.0428 23.5966 58.7262 23.1607 58.4633C23.6659 57.7726 24.0325 57.0401 24.2604 56.2658C24.4882 55.4916 24.6022 54.7689 24.6022 54.0969V53.3818C24.6022 52.5346 24.4458 51.8188 24.1337 51.2344C23.8216 50.6501 23.4303 50.1757 22.9604 49.8105C22.4898 49.4453 21.9817 49.1803 21.4376 49.0154C20.8927 48.8499 20.3824 48.7671 19.9076 48.7671H0V52.5513H9.83351V52.5638H19.9076C20.4426 52.5638 20.7094 52.8365 20.7094 53.3818V54.0969C20.7094 54.5929 20.633 55.0388 20.4794 55.4332C20.3251 55.8269 20.1058 56.1657 19.8185 56.4481C19.5311 56.7312 19.1844 56.9469 18.7782 57.0978C18.372 57.2494 17.917 57.3246 17.4117 57.3246H12.391V61.1505H19.1497C19.655 61.1505 20.1107 61.2263 20.5169 61.3772C20.9231 61.5275 21.2691 61.7445 21.5557 62.0269C21.8437 62.3094 22.0667 62.6474 22.2252 63.0419C22.383 63.4363 22.4622 63.8815 22.4622 64.3781V65.0793C22.4622 65.2838 22.4332 65.4438 22.3731 65.5607C22.3143 65.6776 22.245 65.7603 22.165 65.809C22.0865 65.8584 21.9966 65.8869 21.8982 65.896C21.7992 65.9064 21.715 65.9113 21.6456 65.9113H8.89941V57.6119H5.03705V67.795C5.03705 68.0677 5.08588 68.3209 5.18495 68.5539C5.28402 68.7884 5.41989 68.9901 5.59327 69.1605C5.76664 69.3309 5.97257 69.4652 6.21034 69.5619C6.4474 69.6593 6.70499 69.7087 6.98238 69.7087H21.6456C22.5075 69.7087 23.2357 69.5549 23.8294 69.2482C24.4238 68.9414 24.9065 68.5595 25.278 68.1018C25.6495 67.6441 25.9163 67.1481 26.0804 66.6118C26.2439 66.0768 26.326 65.576 26.326 65.1078V64.3781C26.326 63.638 26.2411 62.9612 26.0727 62.3476" fill="#474747"/>
</svg>
