<svg width="214" height="71" viewBox="0 0 214 71" fill="none" xmlns="http://www.w3.org/2000/svg">
<path d="M165.088 70.479C162.151 70.4048 154.626 70.0525 153.366 69.9303C153.027 69.8974 152.068 69.821 151.235 69.7605C150.402 69.7 149.14 69.6019 148.43 69.5425C147.721 69.4831 146.535 69.3842 145.794 69.3229C139.635 68.8121 126.302 67.257 119.266 66.2285C118.186 66.0707 116.773 65.8692 116.125 65.7806C115.477 65.6921 114.443 65.5414 113.826 65.4457C113.209 65.35 111.997 65.1696 111.133 65.0448C109.46 64.8029 105.502 64.1776 103.281 63.8042C102.541 63.6797 101.633 63.5314 101.262 63.4747C100.892 63.4179 99.6808 63.2161 98.5703 63.0262C97.4598 62.8362 96.2736 62.637 95.9343 62.5833C94.8236 62.4078 92.3899 61.9757 88.9796 61.3486C88.6403 61.2862 87.2522 61.0324 85.8949 60.7846C82.8714 60.2327 82.5505 60.1722 78.4916 59.3879C76.7025 59.0422 74.9469 58.7042 74.5902 58.6369C73.5425 58.4389 73.9106 58.4263 75.4694 58.6067C78.2522 58.9287 78.7307 58.9854 81.0433 59.2672C87.0465 59.9988 97.3054 61.0307 103.955 61.5718C104.757 61.6371 105.993 61.7401 106.703 61.8007C140.23 64.6656 167.168 62.5963 177.102 56.3928C177.479 56.1575 177.823 55.965 177.867 55.965C178.057 55.965 180.959 53.5595 180.961 53.4014C180.961 53.3616 181.109 53.1715 181.289 52.979C184.548 49.5027 184.247 43.863 180.494 38.0518C179.685 36.8001 179.742 36.8778 178.87 35.8303C177.906 34.6708 177.704 34.4378 177.118 33.8044C176.825 33.4878 176.585 33.1931 176.585 33.1496C176.585 33.0842 177.294 33.5621 177.483 33.755C177.514 33.7865 178.044 34.1867 178.661 34.6444C179.278 35.102 179.808 35.5069 179.838 35.544C179.869 35.5812 180.273 35.8872 180.736 36.2241C181.198 36.561 181.647 36.9039 181.733 36.9861C181.819 37.0684 182.021 37.2201 182.182 37.3232C182.343 37.4263 182.651 37.6695 182.867 37.8635C183.083 38.0576 183.719 38.588 184.28 39.0424C186.444 40.7933 188.559 42.6277 189.825 43.8505C190.113 44.1281 190.646 44.6397 191.01 44.9872C192.501 46.4098 195.073 49.1465 195.401 49.6596C195.508 49.8269 195.647 50.0189 195.709 50.0863C195.772 50.1536 195.949 50.3749 196.103 50.578C196.257 50.7811 196.497 51.0793 196.636 51.2407C196.775 51.4022 196.888 51.5973 196.888 51.6745C196.888 51.7516 196.927 51.8147 196.974 51.8147C197.021 51.8147 197.185 52.0166 197.337 52.2634C197.49 52.5101 197.653 52.712 197.7 52.712C197.747 52.712 197.786 52.7616 197.786 52.8222C197.786 52.8828 197.992 53.2687 198.243 53.6797C199.56 55.8305 200.179 57.7939 200.167 59.7788L200.16 61.0688L199.88 61.8712C198.695 65.2793 195.144 67.4211 188.025 69.0216C183.324 70.0784 173.623 70.6948 165.088 70.479L165.088 70.479ZM10.6841 38.2526C10.6841 38.1889 11.3992 37.2392 12.2732 36.1422C14.9878 32.735 15.524 32.0423 16.8535 30.2246C17.563 29.2547 18.7495 27.6457 19.4901 26.6492C20.2308 25.6528 21.6537 23.727 22.6521 22.3697C23.6505 21.0124 25.2415 18.9428 26.1877 17.7707L27.908 15.6394H40.0197H52.1314L53.5896 15.7925C57.1207 16.1632 58.421 17.1997 58.537 19.7361L58.5807 20.692L57.7893 21.7552C57.3541 22.3399 56.7385 23.1639 56.4213 23.5862C55.3429 25.0222 53.9487 26.0266 51.7195 26.9735L50.9712 27.2914L51.2578 27.857C51.9576 29.238 51.7207 30.4302 50.3741 32.3041C49.8671 33.0096 49.2974 33.8197 49.108 34.1044C47.5747 36.4098 45.2407 37.494 40.4095 38.1452C39.1232 38.3185 10.6841 38.4213 10.6841 38.2526V38.2526ZM39.301 34.0022C40.0589 33.7458 40.4455 33.3648 41.7148 31.6238C43.0819 29.7487 43.5393 28.9955 43.3974 28.8536C43.3478 28.804 39.5888 28.752 35.044 28.738L26.7807 28.7125L26.2602 29.411C25.9739 29.7952 25.0779 30.9796 24.2691 32.043C23.4603 33.1065 22.7986 34.0296 22.7986 34.0944C22.7986 34.274 38.7612 34.1848 39.301 34.0022V34.0022ZM45.8498 24.2924C46.576 24.0984 47.2573 23.7466 47.7578 23.3071C48.2816 22.8472 49.8548 20.7559 49.8002 20.5921C49.7293 20.3794 49.0578 20.0434 48.3892 19.886L47.7567 19.7372L40.7237 19.7354L33.6906 19.7337L33.379 20.1543C33.087 20.5485 30.4759 23.8187 30.1099 24.2485L29.9428 24.4449L37.6158 24.4435L45.2889 24.4422L45.8498 24.2924V24.2924ZM56.5621 38.1325C52.4637 37.8732 50.5774 36.7438 51.205 34.9251C51.3808 34.4156 57.8479 25.6816 58.6833 24.8254C59.5197 23.9681 60.9093 23.3867 62.8565 23.0791L63.7972 22.9305H71.5931C80.8367 22.9305 81.9461 23.0302 84.1002 24.0544C85.2409 24.5968 86.136 25.8923 85.7743 26.4776C85.6682 26.6493 83.38 29.8331 83.1237 30.1656C83.0049 30.3198 82.1611 31.506 81.2487 32.8016C78.4536 36.7706 77.4988 37.3983 73.3878 37.9696L72.0979 38.1489L65.0311 38.185C61.1443 38.2049 57.3333 38.1813 56.5621 38.1325ZM71.5024 33.9233C71.944 33.6841 77.0601 27.1824 76.9184 27.0406C76.7924 26.9144 67.0188 26.8967 66.3442 27.0214C65.367 27.202 64.8667 27.5106 64.2882 28.2896C64.0031 28.6736 62.9069 30.1235 61.8524 31.5116L59.9351 34.0355L60.6322 34.103C61.0157 34.1401 63.5252 34.1653 66.2089 34.159L71.0883 34.1477L71.5024 33.9233ZM139.401 38.1249C135.987 37.93 134.304 37.2828 133.953 36.0291L133.81 35.5181L133.942 35.0236C134.097 34.4445 137.516 29.8244 138.128 29.367C138.335 29.2129 138.781 28.9636 139.12 28.813L139.737 28.5391L149.185 28.508L158.633 28.4769L159.196 27.7804L159.76 27.0839L159.564 27.0062C159.456 26.9634 154.963 26.9249 149.58 26.9205C144.197 26.9162 139.793 26.8808 139.793 26.8419C139.793 26.6821 142.516 22.9782 142.709 22.8746C142.998 22.7199 161.283 22.7264 163.069 22.8817C166.166 23.1513 168.034 23.8719 168.6 25.015L168.832 25.4834L168.66 25.7457C168.565 25.89 168.511 26.0728 168.539 26.1519C168.618 26.371 168.508 26.5406 166.378 29.4926C165.288 31.0041 163.849 33.0138 163.181 33.9585C161.293 36.6276 160.244 37.2816 156.955 37.8377C154.749 38.2108 143.989 38.3869 139.401 38.1249V38.1249ZM154.376 33.8564C154.809 33.6515 155.103 33.4101 155.364 33.0431L155.736 32.5212H149.807H143.878L143.298 33.2783L142.717 34.0355L143.358 34.103C143.711 34.1401 146.195 34.1653 148.879 34.159L153.759 34.1477L154.376 33.8564ZM87.1288 38.0032C84.476 37.6716 83.0464 36.6554 82.8604 34.9692L82.7946 34.372L86.7003 29.0256C88.8485 26.085 91.652 22.2632 92.9302 20.5326C94.2085 18.802 95.3185 17.2833 95.3969 17.1577L95.5395 16.9294H99.5507C101.757 16.9294 103.562 16.9633 103.562 17.0047C103.562 17.0461 103.492 17.1597 103.407 17.2571C103.107 17.5998 99.7481 22.4183 99.7481 22.5056C99.7481 22.5542 103.105 22.5807 107.207 22.5644C111.454 22.5476 114.667 22.5773 114.667 22.6336C114.667 22.7602 113.264 24.8603 112.932 25.23C112.794 25.3843 112.52 25.7502 112.322 26.0433L111.964 26.5761H104.478H96.9915L96.4787 27.1089C96.1967 27.402 95.4835 28.2979 94.8939 29.1C91.5573 33.6386 91.3567 33.9271 91.4618 34.0355C91.5292 34.105 93.365 34.169 96.2831 34.2038L100.996 34.2598L99.0251 36.1948L97.0546 38.1298L92.4843 38.1156C89.9706 38.1077 87.5607 38.0572 87.1288 38.0032V38.0032ZM113.153 38.0539C109.567 37.6039 107.487 35.6055 108.819 33.8887C108.995 33.661 109.852 32.4903 110.723 31.2873C112.82 28.3906 115.97 24.0766 116.907 22.8184C118.502 20.6782 120.578 17.862 120.896 17.4085L121.229 16.9342L125.25 16.9318L129.271 16.9294L129.064 17.2464C128.95 17.4207 128.088 18.6448 127.148 19.9665C126.208 21.2883 125.438 22.409 125.437 22.4569C125.436 22.5049 128.792 22.5421 132.895 22.5395C136.997 22.537 140.354 22.5773 140.354 22.6291C140.354 22.7296 139.094 24.5683 138.168 25.8201L137.609 26.5761H130.105H122.601L122.213 26.9882C121.999 27.2149 121.617 27.6818 121.363 28.0258C120.758 28.8474 118.133 32.3951 117.505 33.2398C116.799 34.19 116.576 34.1424 121.926 34.1836L126.595 34.2195L124.642 36.1746L122.69 38.1298L118.089 38.113C115.559 38.1037 113.338 38.0771 113.153 38.0539V38.0539ZM162.793 38.0456C162.796 37.9994 163.431 37.1539 164.206 36.1668C164.98 35.1797 167.047 32.4539 168.799 30.1095C173.48 23.8434 173.709 23.6498 177.016 23.1513L178.1 22.988L188.564 22.9873L199.028 22.9866L198.912 23.2022C198.849 23.3208 198.733 23.4849 198.655 23.5668C198.577 23.6487 197.941 24.435 197.242 25.3142L195.97 26.9126H188.537C180.897 26.9126 180.294 26.9428 179.45 27.3684L178.997 27.5965L177.324 29.8064C176.405 31.0219 174.613 33.3919 173.342 35.0731L171.033 38.1298H166.911C164.643 38.1298 162.79 38.0919 162.793 38.0456V38.0456ZM191.316 37.3165C191.85 36.5961 193.966 33.6985 195.965 30.9508C202.782 21.5815 201.198 22.8783 205.827 22.8762C210.37 22.8741 210.06 22.6303 208.399 24.8998C207.652 25.9213 206.229 27.8646 205.237 29.2184C204.246 30.5722 202.459 33.0176 201.266 34.6525C200.073 36.2873 198.995 37.7386 198.87 37.8774L198.644 38.1298H194.679H190.714L191.316 37.3165Z" fill="#626262"/>
<path d="M16.9878 57.0027C18.6276 55.0993 20.7697 52.4506 20.7262 52.3802C20.6744 52.2964 18.3678 47.2321 18.2335 46.9073L18.1755 46.7671L19.7298 46.7673L21.2842 46.7675L21.891 48.561C22.31 49.7997 22.5355 50.3228 22.6201 50.2521C22.6874 50.1957 23.3482 49.39 24.0885 48.4616L25.4345 46.7735L26.9943 46.7703L28.554 46.7672L28.3857 46.9635C28.153 47.2348 25.2449 50.7281 22.3159 54.2546L19.8704 57.1991H18.3445H16.8187L16.9878 57.0027ZM117.749 56.9501C117.782 56.8094 118.038 55.5837 118.318 54.2265C118.598 52.8692 119.061 50.6356 119.346 49.2629L119.864 46.7671H121.244H122.624L122.559 46.9353C122.473 47.1607 122.615 47.1475 123.237 46.8724C124.915 46.1303 127.112 46.6778 127.956 48.0482L128.296 48.6003L128.296 49.5065L128.295 50.4126L127.991 51.0627C126.95 53.2852 123.706 54.5301 121.773 53.4493C121.43 53.2575 121.261 53.2128 121.232 53.3059C121.208 53.3804 121.057 54.0975 120.896 54.8995C120.734 55.7015 120.565 56.5344 120.519 56.7503L120.435 57.1429L119.062 57.1744L117.689 57.2059L117.749 56.9501ZM124.145 51.7153C126.106 50.8122 125.944 48.4496 123.921 48.4496C122.777 48.4496 121.623 49.4972 121.622 50.5377C121.621 51.6509 122.944 52.2686 124.145 51.7153ZM29.7531 53.6293C28.8224 53.3848 28.0485 52.8492 27.6526 52.1757L27.3415 51.6465V50.8052V49.9639L27.65 49.3357C29.1515 46.2783 34.6048 45.5092 36.4244 48.0982L36.7638 48.5811L36.7621 49.553L36.7603 50.5248L36.4033 51.2113C35.362 53.2131 32.3446 54.3103 29.7531 53.6293ZM32.7727 51.63C33.9039 51.0663 34.3717 49.7874 33.727 49.0211C32.6547 47.7469 30.1457 48.806 30.1457 50.5328C30.1457 51.7725 31.4193 52.3044 32.7727 51.63ZM39.5681 53.726C37.3341 53.2389 37.0162 51.4773 38.3475 46.9634L38.4054 46.7671H39.7439C40.4801 46.7671 41.0822 46.8049 41.0818 46.8512C41.0815 46.8975 40.9051 47.7682 40.6898 48.7861C40.1187 51.4872 40.1665 51.847 41.1174 52.0013C42.3039 52.1939 42.7045 51.6026 43.2937 48.7899L43.7173 46.7671H45.0996H46.4818L46.421 46.9634C46.3875 47.0713 46.1832 48.0178 45.9669 49.0666C45.377 51.9272 45.1818 52.3533 44.1476 53.0383C43.1823 53.6777 40.9108 54.0188 39.5681 53.726ZM60.7151 53.654C56.6317 52.5567 57.9559 47.4226 62.521 46.6526C63.7776 46.4406 65.766 46.7013 65.7585 47.077C65.7571 47.1475 65.6478 47.6455 65.3641 48.875L65.3048 49.1321L65.1292 48.9565C63.5449 47.3722 60.2213 49.3281 61.2191 51.2576C61.6632 52.1165 63.3415 52.2511 64.4572 51.5173L64.8929 51.2308L64.8298 51.4947C64.7951 51.6399 64.7044 52.0823 64.6283 52.4779C64.3883 53.7254 62.7797 54.2088 60.7151 53.654ZM67.998 53.6883C64.8192 52.786 65.0785 48.7346 68.4211 47.0783L69.3765 46.6049L70.5128 46.6017L71.6491 46.5986L72.2513 46.8965L72.8535 47.1943L72.9094 46.9806L72.9653 46.7668H74.3104H75.6555L75.5959 47.0192C75.5632 47.158 75.2429 48.6976 74.8843 50.4404L74.2322 53.6093H72.867H71.5019L71.5605 53.3852L71.6191 53.1611L70.9785 53.4543C70.2085 53.8069 68.8044 53.9172 67.998 53.6883ZM70.9897 51.7602C72.6149 51.0812 73.0184 49.297 71.7009 48.6157C70.4928 47.991 68.5644 49.1673 68.5644 50.5289C68.5644 51.6123 69.8192 52.2493 70.9897 51.7602ZM90.1432 53.6753C86.0027 52.6706 87.0361 47.664 91.5841 46.6945C95.4731 45.8655 98.1693 48.3062 96.6055 51.2402C95.565 53.1924 92.6617 54.2864 90.1432 53.6753ZM92.9866 51.641C93.7573 51.257 94.1668 50.7049 94.228 49.9675L94.2756 49.3927L93.9749 49.0354C92.9499 47.8172 90.5311 48.7197 90.3619 50.3834C90.2326 51.6559 91.6214 52.3214 92.9866 51.641ZM99.6919 53.6762C97.5524 53.1475 97.2761 51.4727 98.5845 46.9634L98.6414 46.7671H99.9799C100.716 46.7671 101.318 46.8049 101.318 46.8512C101.318 46.8975 101.141 47.7682 100.926 48.7862C100.356 51.4798 100.397 51.81 101.324 51.9818C102.52 52.2037 102.942 51.597 103.525 48.8142L103.953 46.7671H105.33H106.707L106.647 47.0195C106.614 47.1583 106.39 48.1891 106.149 49.3102C105.31 53.2236 103.316 54.5717 99.6919 53.6762ZM130.702 53.6811C127.765 52.8889 127.724 49.2009 130.632 47.3147C131.891 46.4976 133.794 46.3218 134.986 46.9121L135.557 47.1946L135.613 46.9808L135.669 46.7671H137.015H138.361L138.313 46.9634C138.286 47.0713 137.965 48.6109 137.598 50.3845L136.933 53.6094L135.615 53.6095L134.297 53.6095V53.3826V53.1557L134.044 53.3208C133.352 53.7741 131.705 53.9516 130.702 53.6811ZM133.693 51.7602C135.319 51.0812 135.722 49.297 134.405 48.6157C133.218 48.0021 131.266 49.1561 131.27 50.4687C131.274 51.6119 132.493 52.2618 133.693 51.7602ZM139.874 53.6735C139.183 53.4742 138.223 52.8505 138.223 52.6006C138.223 52.5607 138.549 52.2665 138.948 51.9468L139.674 51.3655L140.191 51.7304L140.709 52.0952H141.305C142.798 52.0952 142.76 51.2624 141.243 50.7464C138.84 49.929 138.841 47.9394 141.246 46.8372L141.756 46.6032L142.878 46.6028C144.022 46.6025 144.973 46.8128 145.458 47.1737L145.682 47.3408L145.29 47.6751C145.074 47.8589 144.738 48.1359 144.543 48.2906L144.19 48.5719L143.814 48.343C143.367 48.0703 142.743 48.046 142.398 48.2879C141.894 48.641 142.062 48.7971 143.495 49.3035C147.326 50.6579 143.872 54.8261 139.874 53.6735ZM147.028 53.614C146.414 53.4117 145.514 52.816 145.514 52.6119C145.514 52.5658 145.84 52.2665 146.239 51.9468L146.965 51.3655L147.482 51.7303L148 52.0952H148.596C150.089 52.0952 150.051 51.2624 148.534 50.7464C146.152 49.9362 146.128 47.9328 148.486 46.86L149.047 46.605L150.169 46.6018C151.329 46.5986 152.292 46.8102 152.749 47.1687L152.973 47.3446L152.581 47.6825C152.365 47.8684 152.023 48.1491 151.821 48.3063L151.454 48.5921L151.233 48.3923C151.112 48.2824 150.772 48.1693 150.477 48.1411L149.942 48.0896L149.664 48.315L149.386 48.5403L149.579 48.7543C149.686 48.8721 150.064 49.0596 150.42 49.1712C153.945 50.2768 152.709 53.6187 148.711 53.7918L147.701 53.8356L147.028 53.614ZM160.377 53.7187C159.315 53.5045 158.445 52.9409 157.996 52.1758L157.685 51.6465L157.687 50.8018L157.69 49.9572L157.996 49.3324C159.485 46.2893 164.964 45.5162 166.767 48.0948L167.107 48.5812L167.104 49.553L167.101 50.5248L166.828 51.0857C165.867 53.0579 162.967 54.2415 160.377 53.7187ZM163.315 51.5216C163.967 51.1186 164.354 50.4864 164.357 49.8221L164.359 49.3437L163.994 48.9493L163.629 48.5548L163.041 48.4867C160.869 48.2352 159.438 51.0115 161.33 51.807C161.825 52.0153 162.726 51.8858 163.315 51.5216ZM46.5764 53.5254C46.575 53.4791 46.8887 51.9396 47.2733 50.1042L47.9725 46.7671H49.3403H50.7082L50.6496 46.9912L50.591 47.2153L51.249 46.9078L51.907 46.6003L52.7707 46.5996C53.2871 46.5992 53.6878 46.6522 53.7671 46.7316L53.8999 46.8643L53.5765 47.7749L53.253 48.6854L53.0287 48.6153C51.1131 48.0167 50.3276 48.6984 49.7299 51.4783C49.5376 52.3729 49.3547 53.2184 49.3235 53.3572L49.2667 53.6095H47.9228C47.1836 53.6095 46.5778 53.5717 46.5764 53.5254ZM75.8548 53.5254C75.8545 53.4791 76.1664 51.9396 76.5482 50.1042L77.2422 46.7671H78.6136H79.9849L79.9236 47.0012L79.8624 47.2354L80.4385 46.9435C81.1326 46.5917 82.1632 46.4599 82.7373 46.6494C83.2279 46.8113 83.2209 46.7317 82.8394 47.8098L82.5299 48.6843L82.2494 48.595C80.4378 48.0185 79.5686 48.7939 78.9915 51.5014C78.8036 52.3833 78.6213 53.2183 78.5866 53.3571L78.5233 53.6095H77.1894C76.4558 53.6095 75.8552 53.5717 75.8548 53.5254ZM106.814 53.5254C106.814 53.4791 107.126 51.9396 107.507 50.1042L108.202 46.7671H109.573H110.944L110.883 47.0012L110.822 47.2354L111.399 46.9429C113.171 46.0448 114.346 46.4672 113.8 47.806L113.468 48.6179L113.254 48.5744C113.137 48.5505 112.712 48.5256 112.311 48.5191L111.582 48.5072L111.158 48.7702C110.51 49.1722 110.202 50.0121 109.676 52.8243C109.635 53.0403 109.577 53.3053 109.547 53.4132L109.492 53.6095H108.153C107.417 53.6095 106.814 53.5717 106.814 53.5254ZM153.254 53.5547C153.254 53.4027 154.62 46.9381 154.668 46.8591C154.7 46.8085 155.331 46.7671 156.072 46.7671H157.419L157.359 46.9634C157.327 47.0713 157.018 48.5226 156.674 50.1883C156.331 51.854 156.023 53.3053 155.99 53.4132L155.931 53.6095H154.592C153.856 53.6095 153.254 53.5849 153.254 53.5547ZM167.387 53.5254C167.387 53.4791 167.698 51.9396 168.08 50.1042L168.774 46.7671H170.152H171.531L171.466 46.9353C171.383 47.1517 171.407 47.1489 172.043 46.8676C173.23 46.3423 175.177 46.5049 175.824 47.1836C176.501 47.8929 176.509 48.3626 175.894 51.338L175.425 53.6095H174.055H172.684L173.12 51.5182C173.706 48.7111 173.697 48.4981 172.982 48.3471C171.597 48.0542 171.097 48.6752 170.54 51.3802C170.355 52.2802 170.17 53.15 170.13 53.3131L170.055 53.6095H168.721C167.988 53.6095 167.387 53.5717 167.387 53.5254ZM7.28974 39.6204C10.8775 35.0414 14.0446 30.8959 14.3106 30.4305C14.3533 30.3556 13.8147 29.7999 13.0105 29.0894C10.3572 26.7448 8.8897 25.337 7.17699 23.4932C3.58717 19.6285 1.50261 16.5332 0.517123 13.6043L0.107383 12.3866L0.0536907 11.0405L0 9.69444L0.1861 8.96533C1.9336 2.11897 16.6054 -1.07767 39.8486 0.323811C58.2988 1.43629 76.3465 3.71248 101.302 8.07433C108.668 9.36193 125.842 12.6896 125.995 12.859C126.026 12.894 125.842 12.8904 125.586 12.8511C125.329 12.8119 122.502 12.4527 119.304 12.053C107.714 10.6045 99.1162 9.72297 88.0822 8.85199C39.3846 5.00803 13.1277 11.4099 16.7675 26.2397L16.9189 26.8567L17.9499 25.4545C18.517 24.6833 19.8778 22.814 20.9739 21.3005C22.07 19.787 23.8394 17.4502 24.906 16.1076L26.8453 13.6666L40.5539 13.7081L54.2626 13.7497L55.3866 13.9232C57.7363 14.2861 59.3608 15.373 60.1849 17.1337L60.5357 17.8829L60.5792 19.229L60.6227 20.5751L60.2079 21.1156C59.7163 21.756 59.7362 21.8103 60.3793 21.5834C62.3507 20.8879 63.3345 20.8322 72.7147 20.8855L81.0715 20.9329L82.3054 21.1724C85.4551 21.7835 87.3848 23.0241 87.8079 24.7098C87.9145 25.1348 87.9875 25.0798 88.7828 23.976C89.1687 23.4404 90.822 21.1829 92.4569 18.9593L95.4294 14.9163L101.023 14.9134L106.616 14.9104L106.418 15.2189C106.215 15.5349 104.526 17.9362 103.52 19.3412C102.673 20.5227 102.44 20.877 102.44 20.9842C102.44 21.0385 105.574 21.0688 109.527 21.0526L116.614 21.0238L118.864 17.9671L121.114 14.9104H126.71H132.305L132.151 15.1289C132.067 15.249 131.846 15.5635 131.661 15.8277C129.676 18.6611 128.593 20.2016 128.323 20.5751L127.999 21.0238L134.709 21.054C139.348 21.075 141.49 21.047 141.649 20.9633C141.81 20.8782 145.123 20.8562 152.81 20.889L163.742 20.9356L164.751 21.1158C167.739 21.649 169.663 22.6875 170.339 24.1305L170.533 24.5451L171.4 23.6818C172.727 22.3603 174.07 21.6972 176.361 21.2323L177.314 21.0388L195.521 20.9994L213.727 20.96L212.571 22.4675C211.935 23.2967 209.522 26.4403 207.208 29.4534C204.895 32.4665 202.712 35.3106 202.358 35.7736C202.004 36.2367 201.304 37.1456 200.802 37.7934C200.3 38.4412 199.735 39.1857 199.545 39.4479L199.201 39.9246H193.34C190.117 39.9246 187.458 39.8868 187.431 39.8405C187.405 39.7942 188.312 38.5449 189.446 37.0643C190.58 35.5836 192.006 33.7159 192.615 32.9139C194.202 30.8216 195.606 28.9882 196.247 28.173L196.802 27.4664L188.797 27.4981L180.792 27.5297L180.344 27.6982L179.896 27.8667L175.614 33.5872C173.26 36.7335 171.224 39.4465 171.09 39.6162L170.848 39.9246H165.023C161.82 39.9246 159.2 39.8868 159.202 39.8405C159.204 39.7942 159.28 39.6584 159.371 39.5386C159.609 39.2237 159.574 39.1304 159.262 39.249C157.549 39.9003 154.507 40.067 145.458 40.0055L137.83 39.9537L136.652 39.7278C133.428 39.1095 132.022 37.8523 132.192 35.739C132.317 34.1773 136.304 28.6209 137.886 27.8033L138.503 27.4844L130.98 27.479L123.457 27.4736L123.128 27.882C122.471 28.6978 119.046 33.3648 119.044 33.4467C119.042 33.493 121.502 33.5309 124.509 33.5309H129.977L126.781 36.7363L123.584 39.9418L118.2 39.8868L112.816 39.8318L111.863 39.6511C108.647 39.0413 107.176 37.8097 106.888 35.485L106.773 34.5556L107.179 33.9591C107.402 33.631 108.545 32.0502 109.718 30.4461L111.852 27.5297L104.883 27.5008L97.9135 27.4719L97.6426 27.7251C97.3796 27.9709 93.3543 33.3706 93.3543 33.4775C93.3543 33.5069 95.8024 33.5309 98.7946 33.5309C101.787 33.5309 104.235 33.5554 104.235 33.5853C104.235 33.6152 102.809 35.0526 101.066 36.7794L97.8972 39.9192L93.5786 39.9216C85.0971 39.9265 82.6422 39.3011 81.5655 36.8613L81.3006 36.2611L80.7458 36.8681C79.3495 38.3958 77.4661 39.227 74.173 39.7686L72.9952 39.9623L65.031 40.0104C52.3635 40.087 50.3233 39.6598 49.4452 36.747L49.3834 36.5418L48.7944 37.058C47.3484 38.3249 44.8211 39.2406 41.2984 39.7739L40.0168 39.9679L23.4868 40.0066L6.95685 40.0452L7.28974 39.6204ZM40.4094 38.1453C45.2406 37.4941 47.5746 36.4099 49.108 34.1045C49.2973 33.8198 49.867 33.0097 50.374 32.3042C51.7207 30.4303 51.9576 29.2381 51.2577 27.8571L50.9711 27.2915L51.7195 26.9736C53.9487 26.0267 55.3429 25.0223 56.4212 23.5864C56.7384 23.164 57.354 22.34 57.7893 21.7553L58.5806 20.6921L58.5369 19.7362C58.4209 17.1998 57.1206 16.1633 53.5895 15.7926L52.1313 15.6395H40.0196H27.9079L26.1876 17.7708C25.2415 18.943 23.6504 21.0125 22.652 22.3698C21.6536 23.7271 20.2307 25.6529 19.4901 26.6494C18.7494 27.6458 17.5629 29.2548 16.8534 30.2248C15.5239 32.0424 14.9878 32.7351 12.2731 36.1423C11.3991 37.2393 10.684 38.189 10.684 38.2528C10.684 38.4215 39.1232 38.3186 40.4094 38.1453ZM22.8175 34.0524C22.8379 33.9644 23.738 32.7273 24.8176 31.3032L26.7806 28.7139L35.0439 28.7387C39.5888 28.7524 43.3478 28.8041 43.3973 28.8537C43.6106 29.067 40.7644 33.1473 40.0769 33.6138C39.3026 34.1392 39.3286 34.1376 30.8378 34.1759L22.7804 34.2123L22.8175 34.0524ZM39.2877 33.2216L39.7925 32.9684L40.4275 32.0438C40.7768 31.5352 41.2718 30.8289 41.5274 30.4742L41.9922 29.8292L34.3303 29.8313L26.6684 29.8334L25.3504 31.6136C24.6255 32.5927 24.0324 33.4264 24.0324 33.4662C24.0324 33.5061 27.3513 33.5243 31.4077 33.5068L38.7829 33.4748L39.2877 33.2216ZM30.1098 24.2487C30.4758 23.8188 33.0869 20.5487 33.379 20.1544L33.6906 19.7338L40.7236 19.7355L47.7566 19.7373L48.3891 19.8862C49.0578 20.0435 49.7292 20.3795 49.8001 20.5922C49.8547 20.756 48.2816 22.8473 47.7578 23.3072C47.2572 23.7467 46.5759 24.0985 45.8497 24.2925L45.2889 24.4423L37.6158 24.4436L29.9427 24.445L30.1098 24.2487ZM46.5788 22.7469C47.3996 22.3533 48.8223 20.8895 48.8223 20.4387C48.8223 20.1878 34.2988 20.0214 33.958 20.2683C33.841 20.3531 31.9921 22.7045 31.8393 22.9627L31.7541 23.1069L38.858 23.0749L45.9619 23.0428L46.5788 22.7469ZM73.3878 37.9697C77.1256 37.4503 78.611 36.6064 80.4197 33.975C80.8633 33.3297 81.7922 32.0193 82.484 31.0631C84.1236 28.7967 85.6938 26.6079 85.7796 26.4691C86.1363 25.8919 85.233 24.5931 84.1001 24.0545C81.946 23.0303 80.8367 22.9307 71.593 22.9307H63.7971L62.8564 23.0792C59.4959 23.61 59.3726 23.7143 54.7382 29.9414C50.6219 35.4722 50.5472 35.6419 51.7256 36.7877C53.04 38.0658 54.6805 38.2381 65.031 38.1852L72.0978 38.149L73.3878 37.9697ZM60.6322 34.1031L59.935 34.0356L61.8523 31.5118C62.9069 30.1236 64.003 28.6737 64.2882 28.2897C64.8667 27.5107 65.3669 27.2022 66.3441 27.0215C67.0187 26.8968 76.7923 26.9145 76.9183 27.0407C77.06 27.1826 71.9439 33.6842 71.5024 33.9234L71.0883 34.1478L66.2088 34.1591C63.5251 34.1654 61.0156 34.1402 60.6322 34.1031ZM71.3307 33.2215C71.5495 33.0982 75.3538 27.9666 75.4906 27.6103L75.5477 27.4615L71.1306 27.4964L66.7136 27.5312L66.2259 27.7174C65.9577 27.8198 65.6708 27.9961 65.5883 28.1092C65.5058 28.2223 64.6297 29.4371 63.6414 30.8087L61.8445 33.3025L64.5595 33.3399C69.1874 33.4037 71.0656 33.3709 71.3307 33.2215ZM153.983 38.1284C159.383 37.8157 160.958 37.1014 163.181 33.9586C163.849 33.0139 165.288 31.0042 166.378 29.4927C168.508 26.5407 168.618 26.3711 168.539 26.152C168.511 26.0729 168.565 25.8901 168.66 25.7458L168.832 25.4835L168.6 25.0151C168.034 23.872 166.166 23.1514 163.069 22.8819C161.283 22.7265 142.998 22.72 142.709 22.8747C142.516 22.9783 139.793 26.6822 139.793 26.842C139.793 26.8809 144.197 26.9163 149.58 26.9206C154.963 26.925 159.455 26.9635 159.563 27.0063L159.76 27.084L159.196 27.7805L158.633 28.477L149.185 28.5081L139.737 28.5392L139.12 28.8131C138.781 28.9637 138.335 29.213 138.128 29.3671C137.516 29.8245 134.097 34.4446 133.942 35.0237L133.81 35.5182L133.953 36.0292C134.304 37.2829 135.987 37.9301 139.401 38.125C141.612 38.2513 151.82 38.2535 153.983 38.1284ZM143.358 34.1031L142.717 34.0356L143.298 33.2785L143.878 32.5213H149.807H155.735L155.364 33.0432C155.103 33.4102 154.809 33.6517 154.375 33.8565L153.759 34.1478L148.879 34.1592C146.195 34.1655 143.711 34.1402 143.358 34.1031ZM99.0251 36.1949L100.996 34.26L96.2831 34.2039C93.3649 34.1691 91.5291 34.1051 91.4617 34.0356C91.3566 33.9273 91.5572 33.6387 94.8939 29.1001C95.4835 28.2981 96.1966 27.4021 96.4786 27.109L96.9914 26.5762H104.478H111.964L112.322 26.0434C112.519 25.7504 112.794 25.3844 112.932 25.2302C113.264 24.8605 114.667 22.7604 114.667 22.6337C114.667 22.5775 111.454 22.5477 107.207 22.5645C103.105 22.5808 99.748 22.5544 99.748 22.5057C99.748 22.4184 103.107 17.5999 103.407 17.2572C103.492 17.1598 103.562 17.0462 103.562 17.0048C103.562 16.9634 101.757 16.9295 99.5507 16.9295H95.5395L95.3969 17.1578C95.3185 17.2834 94.2085 18.8021 92.9302 20.5327C91.6519 22.2633 88.8485 26.0851 86.7003 29.0257L82.7945 34.3721L82.8604 34.9693C83.1428 37.5303 84.861 38.092 92.4842 38.1157L97.0545 38.1299L99.0251 36.1949ZM124.642 36.1747L126.595 34.2196L121.926 34.1837C116.576 34.1425 116.799 34.1901 117.505 33.2399C118.133 32.3953 120.758 28.8475 121.363 28.0259C121.617 27.682 121.999 27.215 122.213 26.9884L122.601 26.5762H130.105H137.608L138.168 25.8202C139.094 24.5684 140.354 22.7297 140.354 22.6292C140.354 22.5774 136.997 22.5371 132.895 22.5396C128.792 22.5422 125.436 22.505 125.437 22.457C125.438 22.4091 126.208 21.2884 127.148 19.9666C128.087 18.6449 128.95 17.4208 129.064 17.2465L129.271 16.9295L125.25 16.9319L121.229 16.9343L120.896 17.4086C120.578 17.8621 118.502 20.6783 116.907 22.8185C115.97 24.0767 112.82 28.3907 110.723 31.2874C109.852 32.4904 108.995 33.6611 108.818 33.8888C107.696 35.3368 109.262 37.3218 111.938 37.8414C113.266 38.0992 113.174 38.0951 118.089 38.113L122.689 38.1298L124.642 36.1747ZM173.342 35.0732C174.613 33.392 176.404 31.022 177.324 29.8066L178.997 27.5966L179.45 27.3685C180.294 26.943 180.896 26.9127 188.537 26.9127H195.97L197.242 25.3143C197.941 24.4352 198.577 23.6488 198.655 23.5669C198.733 23.485 198.849 23.3209 198.912 23.2023L199.028 22.9867L188.564 22.9874L178.1 22.9881L177.016 23.1514C173.709 23.6499 173.48 23.8435 168.798 30.1096C167.047 32.454 164.98 35.1798 164.206 36.1669C163.431 37.154 162.796 37.9995 162.793 38.0458C162.791 38.092 164.643 38.1299 166.911 38.1299H171.033L173.342 35.0732ZM198.87 37.8775C198.995 37.7387 200.072 36.2875 201.265 34.6526C202.458 33.0177 204.246 30.5724 205.237 29.2185C206.229 27.8647 207.651 25.9214 208.399 24.9C210.06 22.6304 210.37 22.8743 205.827 22.8763C201.198 22.8784 202.781 21.5816 195.965 30.9509C193.966 33.6986 191.85 36.5963 191.316 37.3166L190.714 38.1299H194.679H198.644L198.87 37.8775Z" fill="#474747"/>
</svg>
