<svg width="268" height="70" viewBox="0 0 268 70" fill="none" xmlns="http://www.w3.org/2000/svg">
<g clip-path="url(#clip0_28_337)">
<path d="M267.437 59.7363V68.5007C265.638 69.4233 263.614 69.9999 261.252 69.9999C257.653 69.9999 253.267 68.5007 253.267 61.0048C253.267 53.5089 257.653 52.0098 261.252 52.0098C263.276 52.0098 265.188 52.4711 266.875 53.163V56.046C265.301 55.3541 263.501 54.7775 261.477 54.7775C258.778 54.7775 256.304 55.5847 256.304 61.0048C256.304 66.4249 258.778 67.2322 261.477 67.2322C262.602 67.2322 263.614 67.0015 264.513 66.7709V62.504H260.465V59.7363H267.437Z" fill="#474747"/>
<path d="M227.513 52.2407V69.8849H224.027L215.142 56.7383V69.8849H212.106V52.2407H215.592L224.364 65.272V52.2407H227.513Z" fill="#474747"/>
<path d="M182.641 70V52.4712H185.677V70.1153H182.641V70Z" fill="#474747"/>
<path d="M157.898 52.4712V55.5849H152.388V70H149.351V55.5849H143.84V52.4712H157.898Z" fill="#474747"/>
<path d="M119.324 52.4712V70.1153H116.287V62.8501H108.977V70.1153H105.94V52.4712H108.977V59.7364H116.287V52.4712H119.324Z" fill="#474747"/>
<path d="M79.8491 59.7363V68.5007C78.0497 69.4233 76.0253 69.9999 73.6636 69.9999C69.9523 69.9999 65.6787 68.5007 65.6787 61.0048C65.6787 53.5089 70.0648 52.0098 73.6636 52.0098C75.6879 52.0098 77.5998 52.4711 79.2868 53.163V56.046C77.7123 55.3541 75.9129 54.7775 73.8885 54.7775C71.1894 54.7775 68.7152 55.5847 68.7152 61.0048C68.7152 66.4249 71.1894 67.2322 73.8885 67.2322C75.0132 67.2322 76.0253 67.0015 76.925 66.7709V62.504H72.8764V59.7363H79.8491Z" fill="#474747"/>
<path d="M37.1128 69.8849V52.2407H40.1493V69.8849H37.1128V69.8849Z" fill="#474747"/>
<path d="M11.5839 66.8865V69.8849H0.225098V52.2407H3.26161V66.8865H11.5839Z" fill="#474747"/>
<path d="M268 11.8783C268 19.2589 263.502 23.4104 255.517 23.4104H248.994V34.7119H242.921V0.346191H255.404C263.502 0.346191 268 4.49776 268 11.8783ZM262.04 11.8783C262.04 8.41868 260.803 5.99693 255.179 5.99693H249.106V17.7597H255.179C260.803 17.7597 262.04 15.4533 262.04 11.8783Z" fill="#474747"/>
<path d="M216.267 17.6442C216.267 32.1746 207.72 35.2883 200.522 35.2883C193.324 35.2883 184.89 32.29 184.89 17.6442C184.89 2.99835 193.437 0 200.635 0C207.72 0 216.267 2.99835 216.267 17.6442ZM210.306 17.6442C210.306 6.91928 205.695 5.53542 200.635 5.53542C195.686 5.53542 191.075 7.0346 191.075 17.6442C191.075 28.369 195.686 29.8682 200.635 29.8682C205.583 29.8682 210.306 28.369 210.306 17.6442Z" fill="#474747"/>
<path d="M162.959 0.461426V6.68877H152.163V34.9425H146.09V6.57345H135.406V0.461426H162.959Z" fill="#474747"/>
<path d="M104.366 34.9425V0.461426H110.439V34.9425H104.366V34.9425Z" fill="#474747"/>
<path d="M78.2746 34.8272H70.9644L62.9796 22.7184H57.5813V34.8272H51.5083V0.461426H64.4416C72.2015 0.461426 76.925 4.38235 76.925 11.5323C76.925 18.1056 72.8763 20.758 69.6149 21.7959L78.2746 34.8272ZM64.2167 17.0677C67.703 17.0677 70.7395 16.2604 70.7395 11.6476C70.7395 7.03474 67.703 6.22749 64.2167 6.22749H57.4689V17.0677H64.2167Z" fill="#474747"/>
<path d="M25.5292 24.6789C25.5292 28.5998 23.9547 34.8272 13.2707 34.8272H0V0.461426H12.0336C17.7692 0.461426 23.6173 2.65253 23.6173 10.1484C23.6173 13.608 21.7054 15.6838 19.6811 16.837C22.3802 17.7596 25.5292 19.9507 25.5292 24.6789ZM6.07302 14.4153H12.4834C13.2707 14.4153 17.7692 14.7613 17.7692 10.2637C17.7692 6.34281 14.5078 5.7662 12.0336 5.7662H6.07302V14.4153ZM19.5686 24.4482C19.5686 20.412 15.6324 19.9507 12.8208 19.9507H6.07302V29.4071H13.0457C16.4196 29.4071 19.5686 28.3692 19.5686 24.4482Z" fill="#474747"/>
</g>
<defs>
<clipPath id="clip0_28_337">
<rect width="268" height="70" fill="white"/>
</clipPath>
</defs>
</svg>
