<svg width="274" height="71" viewBox="0 0 274 71" fill="none" xmlns="http://www.w3.org/2000/svg">
<path d="M72.3961 65.6678V60.4363H77.6444H82.8927L84.4939 62.0414C88.9218 66.4802 84.9532 70.8993 76.5389 70.8993H72.3961V65.6678ZM82.7029 68.1527C85.4381 65.4109 82.4438 61.7442 77.4696 61.7442H74.3531V65.3408V68.9375H78.1366C80.2176 68.9375 82.2724 68.5843 82.7029 68.1527ZM92.9446 70.1441C88.2933 67.5938 89.2684 61.8688 94.5993 60.4298C101.857 58.4708 107.857 65.009 102.802 69.3679L101.026 70.8993L97.6376 70.8794C95.774 70.8685 93.6621 70.5376 92.9446 70.1441ZM101.586 67.8465C103.772 64.8499 101.458 61.7442 97.0396 61.7442C91.8916 61.7442 90.2376 67.0311 94.7811 68.9634C96.778 69.8126 100.611 69.1835 101.586 67.8465ZM108.927 65.6413V60.3834L114.24 60.5733L119.553 60.7633L120.269 61.9054C120.796 62.7453 120.779 63.3788 120.205 64.2995L119.425 65.5515L120.373 65.9161C122.312 69.9907 119.784 70.8993 113.674 70.8993H108.927V65.6413ZM118.431 67.5954C118.263 66.711 117.597 66.6038 114.955 66.451L111.536 66.2534V67.5954V68.9375H115.172H118.807L118.431 67.5954ZM118.431 63.6329C119.106 62.538 117.41 61.7654 114.308 61.7542L111.536 61.7442V63.052V64.3599H114.759C116.532 64.3599 118.184 64.0327 118.431 63.6329ZM125.887 65.6678V60.4363H130.497C136.826 60.4363 140.388 63.4013 136.607 65.5226L135.584 66.0964L136.997 68.4979L138.411 70.8993H137.106C136.306 70.8993 135.28 70.0132 134.454 68.6105L133.107 66.3217H130.476H127.844V68.6105C127.844 70.209 127.549 70.8993 126.866 70.8993H125.887V65.6678ZM134.64 64.6169C137.57 63.4898 135.192 61.7442 130.726 61.7442H127.844V63.379V65.0138H130.726C132.312 65.0138 134.073 64.8352 134.64 64.6169ZM142.848 65.6678V60.4363H148.067C151.111 60.4363 153.285 60.7088 153.285 61.0902C153.285 61.4591 151.437 61.7442 149.045 61.7442H144.805V63.052V64.3599H147.414C149.299 64.3599 150.024 64.6324 150.024 65.3408C150.024 66.0492 149.299 66.3217 147.414 66.3217H144.805V67.5984V68.8751L148.83 69.0697C155.247 69.3801 154.658 70.8993 148.121 70.8993H142.848V65.6678ZM165.027 65.6678V60.4363H166.006C166.689 60.4363 166.984 61.1266 166.984 62.7251C166.984 63.9839 167.143 65.0138 167.336 65.0138C167.53 65.0138 169.214 63.9839 171.078 62.7251C172.943 61.4662 175.06 60.4517 175.782 60.4706L177.095 60.5049L175.5 61.615C174.622 62.2256 173.302 63.2348 172.564 63.8578L171.224 64.9904L174.486 67.9197C178.709 71.712 176.653 72.1085 172.216 68.3577L169.209 65.8162L168.097 66.6315C167.485 67.0799 166.984 68.2236 166.984 69.173C166.984 70.2715 166.628 70.8993 166.006 70.8993H165.027V65.6678ZM181.336 65.6678V60.4363H185.945C192.323 60.4363 195.831 63.404 191.997 65.5553L190.916 66.1618L192.376 68.5305L193.836 70.8993H192.543C191.756 70.8993 190.722 70.0026 189.902 68.6105L188.555 66.3217H185.924H183.293V68.6105C183.293 70.209 182.997 70.8993 182.314 70.8993H181.336V65.6678ZM190.089 64.6169C193.019 63.4898 190.64 61.7442 186.175 61.7442H183.293V63.379V65.0138H186.175C187.76 65.0138 189.521 64.8352 190.089 64.6169ZM197.644 69.9907C198.443 69.082 204.836 63.5538 206.463 61.7442C206.463 61.7442 204.542 61.7442 202.21 61.7442C200.036 61.7442 198.296 61.4535 198.296 61.0902C198.296 60.7025 200.696 60.4363 204.19 60.4363H210.084C207.374 63.6865 204.326 66.3794 201.168 69.173L205.485 69.1538C208.771 69.2997 210.038 69.2305 210.038 69.9482V70.8993H203.841H197.644C197.644 70.8993 196.845 70.8993 197.644 69.9907ZM214.604 65.6678V60.4363H219.823C222.867 60.4363 225.042 60.7088 225.042 61.0902C225.042 61.4591 223.194 61.7442 220.802 61.7442H216.561V63.052V64.3599H219.171C221.055 64.3599 221.78 64.6324 221.78 65.3408C221.78 66.0492 221.055 66.3217 219.171 66.3217H216.561V67.5984V68.8751L220.587 69.0697C227.004 69.3801 226.415 70.8993 219.878 70.8993H214.604V65.6678ZM229.931 69.5874C228.304 67.7855 229.244 67.1322 231.523 68.4814C233.789 69.8232 236.109 69.9033 237.755 68.6966L238.976 67.8017L237.717 67.1505C237.024 66.7924 235.17 66.3348 233.595 66.1337C230.186 65.6981 228.647 64.4048 229.254 62.4856C230.029 60.0373 238.088 59.0156 238.088 61.3657C238.088 61.8751 236.994 62.1388 234.99 62.1122C230.421 62.0517 230.767 63.7536 235.517 64.7075C239.91 65.5897 240.698 66.0342 240.698 67.6311C240.698 70.7966 232.386 72.3068 229.931 69.5874ZM244.612 65.6678V60.4363H245.916H247.221V62.3981C247.221 64.5635 247.384 64.6684 249.221 63.683C251.122 62.6629 250.81 64.1145 248.852 65.4009C248.412 65.6897 247.523 66.0824 247.229 66.4856C246.896 66.941 247.221 68.289 247.221 68.8722L250.92 69.0683C257.06 69.3938 256.208 70.8993 249.885 70.8993H244.612V65.6678ZM259.565 68.9878C255.439 64.8516 258.923 60.0337 265.935 60.177C275.782 60.3782 274.684 70.8993 264.816 70.8993H261.472L259.565 68.9878ZM267.687 68.9688C270.964 67.72 271.35 63.8545 268.336 62.4778C264.721 60.8268 260.268 62.3587 260.268 65.2529C260.268 68.6772 263.805 70.4486 267.687 68.9688ZM30.973 43.7369C39.5907 37.8241 40.2 34.9759 34.4736 27.3727C32.3892 24.605 31.6839 23.0223 31.4506 20.5879L31.1463 17.4129L33.1103 13.5846C34.1905 11.479 35.544 8.87338 36.1182 7.79439C37.4689 5.25607 37.4436 3.62838 36.0286 2.03155L34.887 0.743282L37.4963 1.22197C64.8487 6.2398 60.1786 41.6787 31.7112 45.1222L28.3637 45.5272L30.973 43.7369ZM76.3231 44.2503C75.0745 43.6215 73.3866 42.1071 72.5722 40.885L71.0914 38.663V22.8349V7.0069L72.5722 4.7849C73.3866 3.5628 75.0745 2.04838 76.3231 1.41952L78.5933 0.27615L89.5198 0.27512L100.446 0.27409V1.76343C100.446 5.77651 96.5368 8.12133 89.8458 8.12133C83.8334 8.12136 83.4858 8.4681 83.4858 14.4645V19.2383H87.7259H91.9661V22.8349V26.4316H87.7259H83.4858V31.2053C83.4858 37.1434 83.8704 37.5485 89.5082 37.5485C96.3284 37.5485 100.446 39.9421 100.446 43.9064V45.3957L89.5198 45.3948L78.5933 45.3937L76.3231 44.2503ZM104.36 26.2013V7.0069L105.841 4.7849C106.656 3.5628 108.343 2.04838 109.592 1.41952L111.862 0.27615H123.278H134.694L136.931 1.41952C138.161 2.04838 139.775 3.39309 140.518 4.40778L141.869 6.25266L142.068 25.8242L142.267 45.3957H136.034H129.801V27.5433C129.801 6.87214 130.221 8.12136 123.278 8.12136C116.335 8.12136 116.755 6.87214 116.755 27.5433V45.3957H110.558H104.36V26.2013ZM155.895 26.7586V8.12136H150.676H145.457V4.19774V0.274118H163.845H182.232L180.491 2.0961C179.533 3.09819 178.561 4.86382 178.33 6.01972L177.911 8.12136H173.1H168.289V26.7586V45.3957H162.092H155.895V26.7586ZM186.601 44.2503C185.37 43.6215 183.756 42.2769 183.013 41.2624L181.662 39.4178L181.482 23.6061L181.303 7.79439L182.461 5.5521C183.098 4.31883 184.446 2.70034 185.458 1.95544L187.298 0.601086L198.994 0.396323L210.691 0.19156V1.85736C210.691 2.77397 209.834 4.48366 208.787 5.65878L206.884 7.79439L201.122 8.02491C193.878 8.31474 193.73 8.44308 193.73 14.4138V19.2383H197.97H202.21V22.8349V26.4316H197.97H193.73V31.256C193.73 37.2117 193.852 37.3174 201.168 37.6859L206.975 37.9784L208.833 40.0626C209.855 41.2088 210.691 42.8777 210.691 43.7712V45.3957L199.764 45.3948L188.837 45.3938L186.601 44.2503ZM219.383 44.4416C218.244 43.9449 216.776 42.7195 216.121 41.7183L214.931 39.8981L214.732 20.0861L214.534 0.274118H220.766H226.999V18.1266C226.999 38.4081 226.761 37.5485 232.369 37.5485C238.522 37.5485 242.655 40.2941 242.655 44.3824V45.3957L232.054 45.3701C224.522 45.3519 220.855 45.0832 219.383 44.4416ZM248.382 44.9703C247.028 44.7325 246.462 44.1308 245.993 42.4302C245.125 39.2785 243.019 36.5505 240.715 35.5937L238.741 34.7741L238.742 21.6112L238.743 8.44832L239.883 6.15955C240.666 4.58948 242.048 3.3574 244.286 2.23593L247.547 0.601086H256.354H265.16L268.422 2.23593C270.644 3.34966 272.053 4.60032 272.842 6.15955L274 8.44832L273.82 23.9279L273.641 39.4076L272.01 41.1781C268.937 44.514 256.84 46.4556 248.382 44.9703ZM260.379 36.4662L261.572 35.384V22.7707V10.1573L260.123 9.13934C258.206 7.79362 253.843 7.8296 252.328 9.20361L251.135 10.2859V23.2308V36.1756L252.277 36.8422C254.111 37.913 259.037 37.6844 260.379 36.4662ZM20.2095 43.5847C28.8145 37.8414 29.3053 34.2911 22.4931 27.064C16.9767 21.2116 16.9792 19.0424 22.5113 10.7091C28.3138 1.96852 24.6174 -0.77456 14.9038 5.0636C1.73624 12.9777 1.02804 31.1498 13.5716 39.2458C17.8276 41.9927 18.1656 42.4226 16.5558 43.0418C13.6906 44.144 4.21224 36.3409 1.54256 30.6822L0 27.4125V22.508V17.6034L1.56854 14.2263C6.4662 3.68153 27.1823 -4.32655 31.6965 2.57996L32.7214 4.14801L31.9589 6.46409C31.5395 7.73793 29.972 10.9003 28.4754 13.4916C25.0448 19.4316 24.8741 22.3168 27.7114 26.4023C31.5926 31.9911 31.9447 32.6731 31.9457 34.6058C31.948 39.0497 25.6825 44.7783 20.8972 44.7075L18.5787 44.6732L20.2095 43.5847Z" fill="#474747"/>
</svg>
