<svg width="225" height="66" viewBox="0 0 225 66" fill="none" xmlns="http://www.w3.org/2000/svg">
<g clip-path="url(#clip0_114_413)">
<path d="M49.5 2.87289L49.2672 5.82348L24.6724 6.05642L0 6.21171V22.5176V38.8235H24.8276H49.6552V41.9294V45.0352H24.8276H0V55.5176V65.9999H55.0862H110.095L110.328 60.7976C110.638 54.1976 111.957 53.5764 114.207 59.0117L115.914 63.0494L117.078 59.8658C119.793 53.0329 122.121 53.7317 121.655 61.2635C121.578 63.9035 121.655 65.9999 122.043 65.9999C122.353 65.9999 122.586 65.5341 122.586 64.9129C122.586 62.7388 125.922 55.0517 126.776 55.3623C127.241 55.5176 128.56 58.0799 129.647 61.0305L131.741 66.3882L132.052 60.9529C132.285 55.7505 132.362 55.5176 134.302 55.2847C138.957 54.7411 141.75 60.8752 138.491 64.447C137.095 65.9999 137.095 65.9999 139.112 65.9999C141.052 65.9999 141.129 65.8447 141.362 60.7199L141.595 55.5176H144.155C147.103 55.5176 147.569 56.9929 144.698 57.3035C142.138 57.6141 142.138 59.7882 144.698 59.7882C145.785 59.7882 146.638 60.0988 146.638 60.5647C146.638 60.9529 145.785 61.3411 144.698 61.3411C143.302 61.3411 142.759 61.7294 142.759 62.8941C142.759 64.1364 143.302 64.447 145.086 64.447C146.405 64.447 147.414 64.7576 147.414 65.2235C147.414 65.6117 148.422 65.9999 149.741 65.9999C150.983 65.9999 151.991 65.767 151.991 65.3788C151.914 65.0682 151.914 62.6611 151.991 59.9435C152.069 53.2658 153.621 53.8094 153.621 60.5647C153.621 67.4752 155.017 67.7082 155.328 60.7976C155.483 57.6917 155.948 55.5176 156.491 55.3623C157.035 55.1294 158.276 56.6823 159.362 58.7788L161.302 62.5058L161.379 58.7788C161.379 56.1388 161.69 55.1294 162.388 55.3623C163.009 55.5176 163.319 57.3811 163.319 60.7976V65.9999H165.802H168.285L168.517 60.7199L168.75 55.5176L171.31 55.2847C173.172 55.1294 173.793 55.3623 173.793 56.2164C173.793 56.9929 173.095 57.4588 171.853 57.4588C170.612 57.4588 169.914 57.9247 169.914 58.6235C169.914 59.3223 170.612 59.7882 171.853 59.7882C174.259 59.7882 174.414 61.1082 172.086 61.4964C170.767 61.6517 170.224 62.3505 170.069 63.8258C169.836 65.8447 170.069 65.9999 172.397 65.9999C174.957 65.9999 175.035 65.9223 174.724 63.2823C174.336 59.8658 175.19 55.1294 176.121 55.1294C176.586 55.1294 176.897 57.5364 176.897 60.5647C176.897 63.6705 177.207 65.9999 177.672 65.9999C178.138 65.9999 178.448 63.8258 178.448 61.0305C178.448 54.0423 179.922 53.4988 182.948 59.3999L184.578 62.5058L184.655 58.7788C184.655 56.7599 185.043 55.1294 185.431 55.1294C186.129 55.1294 186.595 60.9529 186.285 64.6799C186.207 65.3788 186.595 65.9999 187.138 65.9999C187.836 65.9999 188.147 64.6023 188.147 60.7976C188.147 57.3811 188.457 55.5176 189.155 55.3623C189.853 55.0517 190.086 56.2941 190.086 59.7105C190.086 64.3694 190.086 64.447 192.259 64.447C194.276 64.447 194.586 64.0588 195.828 60.1764C198 53.3435 199.164 53.5764 201.569 61.4964C202.81 65.8447 204.595 68.0188 203.586 64.0588C202.966 61.5741 203.897 55.1294 204.905 55.1294C205.293 55.1294 206.302 56.2164 207 57.5364C209.56 62.1952 209.871 62.3505 209.871 59.2447C209.871 54.1199 211.422 55.5952 211.655 60.9529C211.966 67.5529 213.207 67.4752 213.517 60.7199L213.75 55.5176L216.388 55.6729C217.785 55.6729 219.491 56.2941 220.19 56.9929C221.819 58.6235 221.664 62.5058 219.957 64.447C218.56 65.9999 218.56 65.9999 221.741 65.9999H225V55.5176V45.0352H183.491H141.983V41.9294V38.8235H183.491H225V22.5176V6.21171H183.491H141.983V3.10583V-5.28395e-05L131.741 0.0775942C123.517 0.155241 122.043 0.310535 124.526 0.854065C133.138 2.87289 137.328 9.70583 137.328 21.8964C137.328 32.0682 133.448 39.2894 126.388 42.2399C119.095 45.2682 109.474 44.4141 104.509 40.2988C100.009 36.5717 98.3017 32.5341 97.9138 24.7694C97.2155 11.4917 102.181 3.18348 112.112 0.698771C113.431 0.388182 106.448 0.155241 96.5948 0.155241C85.0345 0.155241 79.9138 0.388182 82.0086 0.776418C85.5776 1.55289 88.5259 2.87289 89.3793 4.19289C90.2328 5.35759 90.1552 10.7152 89.3017 11.1811C88.9914 11.4141 87.2069 10.8705 85.4224 10.0164C81.7759 8.23054 75.6466 7.29877 72.6983 8.07524C70.0604 8.69642 66.181 12.0352 64.6293 14.9858C62.8448 18.4799 63.0776 26.0894 65.0173 29.8941C67.3448 34.5529 72.6983 37.0376 78.0517 36.0282L80.6897 35.5623V30.5152V25.5458L76.6552 25.7011C73.0862 25.9341 72.6207 25.7788 72 24.0705C71.5345 22.8282 71.6121 21.5082 72.0776 20.4211C72.8535 18.7129 73.319 18.6352 80.6121 18.6352C86.1983 18.6352 88.5259 18.9458 89.1466 19.7223C89.7673 20.4211 90 24.0705 89.8448 30.7482L89.6121 40.7647L87.4397 41.7741C80.1466 45.2682 67.5776 44.4141 61.8362 40.0658C54.3104 34.4752 51.6724 21.7411 56.0172 12.4235C59.1983 5.59054 62.9224 2.5623 70.2155 0.776418C71.6121 0.388182 67.8879 0.155241 61.1379 0.0775942L49.7328 -5.28395e-05L49.5 2.87289ZM15.9052 12.4235C15.9052 13.2776 14.819 13.6658 11.4828 13.8211L6.98276 14.0541V17.0823V20.1882H10.8621C14.1983 20.1882 14.7414 20.4211 14.7414 21.7411C14.7414 23.0611 14.1983 23.2941 10.8621 23.2941H6.98276V26.7882V30.2047L11.4052 30.4376C14.9741 30.5929 15.9052 30.9811 16.1379 32.0682C16.3707 33.3105 15.8276 33.4658 9.93104 33.2329L3.49138 32.9999L3.25862 22.9835C3.18103 17.3929 3.25862 12.4235 3.49138 11.8799C4.03448 10.2494 15.9052 10.7929 15.9052 12.4235ZM39.1035 12.5011C41.5862 14.4423 41.8966 18.6352 39.6466 20.887C38.1724 22.3623 38.1724 22.4399 39.9569 26.167C42.9052 32.4564 43.0604 33.3882 40.9655 33.3882C39.4914 33.3882 38.7931 32.5341 37.0862 28.7294C35.3793 24.7694 34.7586 24.0705 33.0517 24.0705C31.1121 24.0705 31.0345 24.2258 31.0345 28.7294C31.0345 33.1552 30.9569 33.3882 29.0948 33.3882H27.1552V22.6729C27.1552 16.7717 27.3879 11.647 27.6983 11.4141C27.931 11.1035 30.181 10.8705 32.5862 10.8705C35.9224 10.8705 37.5517 11.2588 39.1035 12.5011ZM158.198 18.0141C160.293 21.9741 162.31 25.7011 162.698 26.2447C163.009 26.8658 163.319 23.6823 163.319 19.2564C163.319 11.5694 163.397 11.2588 165.103 11.0258C166.81 10.7929 166.81 10.7929 166.81 22.0517V33.3882H164.638C162.621 33.3882 162 32.6894 158.431 25.7788C152.535 14.7529 152.767 14.7529 152.922 24.4588C153.078 32.6117 153 32.9999 151.371 33.2329C149.741 33.4658 149.741 33.3105 149.741 22.207V10.8705H152.069C154.164 10.8705 154.629 11.4917 158.198 18.0141ZM191.638 12.4235C191.638 13.8211 191.095 13.9764 187.06 13.9764H182.56L182.638 17.0823L182.716 20.1882H186.828C190.397 20.1882 190.94 20.4211 190.707 21.5082C190.552 22.5952 189.543 22.9835 186.362 23.1388C183.026 23.3717 182.25 23.6047 182.638 24.5364C182.871 25.2352 183.103 26.7882 183.103 28.0305C183.103 30.2047 183.181 30.2823 187.293 30.2823C190.164 30.2823 191.638 30.5929 191.871 31.3694C192.569 33.1552 191.716 33.3882 185.276 33.3882H179.224V22.1294V10.8705H185.431C191.095 10.8705 191.638 11.0258 191.638 12.4235ZM217.319 21.7411C219.414 27.487 221.121 32.4564 221.121 32.767C221.121 33.1552 220.345 33.3882 219.336 33.3882C218.017 33.3882 217.319 32.6894 216.543 30.6705C215.612 27.9529 215.535 27.9529 211.112 27.9529C206.69 27.9529 206.612 28.0305 205.914 30.4376C205.371 32.2235 204.595 33.0776 203.431 33.2329C202.5 33.3882 201.724 33.1552 201.724 32.767C201.724 32.3788 203.276 27.7976 205.216 22.4399C207.155 17.1599 208.94 12.3458 209.095 11.8023C209.328 11.1811 210.336 10.8705 211.5 11.0258C213.362 11.2588 213.905 12.1129 217.319 21.7411Z" fill="#474747"/>
<path d="M31.0347 17.4707C31.0347 21.2754 31.5778 21.586 35.2243 20.1884C36.776 19.6449 37.2416 18.8684 37.2416 17.1602C37.2416 14.8307 36.1554 13.9766 32.8967 13.9766C31.1898 13.9766 31.0347 14.2872 31.0347 17.4707Z" fill="#474747"/>
<path d="M211.112 15.5292C211.034 15.7622 210.336 17.8586 209.483 20.1104C208.629 22.4398 208.086 24.4586 208.241 24.6139C208.396 24.8469 209.948 24.8469 211.655 24.6916L214.681 24.4586L212.896 19.7998C211.888 17.2375 211.112 15.2963 211.112 15.5292Z" fill="#474747"/>
<path d="M112.655 9.08478C109.164 10.793 107.69 14.0542 107.302 20.5765C106.681 31.2918 109.862 36.106 117.543 36.106C121.034 36.106 122.043 35.7954 123.983 33.9318C130.034 28.186 129.181 12.346 122.664 9.00713C119.715 7.45419 115.914 7.45419 112.655 9.08478Z" fill="#474747"/>
<path d="M133.914 60.5644C134.069 64.4468 134.379 64.835 136.474 63.6703C139.189 62.2727 138.414 57.4586 135.465 57.4586C133.914 57.4586 133.758 57.8468 133.914 60.5644Z" fill="#474747"/>
<path d="M215.069 60.5646C215.224 64.214 215.845 64.8352 218.017 63.6705C220.81 62.1952 219.569 57.4587 216.31 57.4587C215.224 57.4587 214.914 58.0799 215.069 60.5646Z" fill="#474747"/>
<path d="M126.233 59.3998C125.612 60.9527 125.922 61.6515 127.086 61.2633C127.474 61.108 127.552 60.2539 127.241 59.4774C126.776 58.0021 126.698 58.0021 126.233 59.3998Z" fill="#474747"/>
<path d="M197.612 59.8657C197.069 62.0398 197.146 62.2727 198.543 61.4186C199.241 60.9527 199.319 60.3316 198.853 59.3998C198.155 58.2351 198 58.2351 197.612 59.8657Z" fill="#474747"/>
<path d="M112.112 62.4282C112.112 65.3012 112.345 66 113.509 66C115.061 66 115.061 65.6894 113.354 61.8071L112.035 58.8565L112.112 62.4282Z" fill="#474747"/>
<path d="M117.853 62.5059C116.612 65.8447 116.612 66 118.009 66C119.25 66 119.483 65.3788 119.483 62.5059C119.483 60.5647 119.405 59.0118 119.25 59.0118C119.172 59.0118 118.552 60.5647 117.853 62.5059Z" fill="#474747"/>
<path d="M157.345 62.5059C157.578 65.3012 157.966 66 159.129 66C159.905 66 160.603 65.8447 160.603 65.6118C160.603 65.0682 157.578 59.0118 157.267 59.0118C157.19 59.0118 157.19 60.5647 157.345 62.5059Z" fill="#474747"/>
<path d="M180.388 62.5059C180.388 65.6118 180.62 66 182.172 66C183.103 66 183.879 65.8447 183.879 65.6118C183.879 65.0682 180.853 59.0118 180.543 59.0118C180.465 59.0118 180.388 60.5647 180.388 62.5059Z" fill="#474747"/>
<path d="M205.604 62.3506C205.604 65.7671 205.759 66 207.543 66H209.483L207.854 62.6612C205.604 58.2353 205.604 58.2353 205.604 62.3506Z" fill="#474747"/>
<path d="M124.681 64.2141C123.517 65.3788 124.293 66 126.853 66C128.87 66 129.414 65.7671 129.103 64.8353C128.638 63.6706 125.612 63.2047 124.681 64.2141Z" fill="#474747"/>
<path d="M196.06 64.7576C195.672 65.7671 196.138 66 198.31 66C200.172 66 200.948 65.6894 200.793 64.9906C200.25 63.5153 196.603 63.36 196.06 64.7576Z" fill="#474747"/>
</g>
<defs>
<clipPath id="clip0_114_413">
<rect width="225" height="66" fill="white"/>
</clipPath>
</defs>
</svg>
