<svg width="290" height="31" viewBox="0 0 290 31" fill="none" xmlns="http://www.w3.org/2000/svg">
<path d="M64.6145 30.85L63.4247 30.7355L62.1196 30.5267L60.8145 30.3179L59.4732 29.9801L58.1319 29.6424L57.1135 29.2933L56.0947 28.9444L54.8309 28.3568L53.5675 27.7691L52.4089 26.9985L51.2499 26.2279L50.2479 25.2783L49.2455 24.3287L48.579 23.4526L47.9122 22.5765L47.3156 21.3537L46.7191 20.131L46.3621 18.7926L46.0051 17.4543L46.0025 15.1629L46 12.8714L46.296 11.7931L46.5919 10.7147L47.0512 9.74542L47.511 8.77614L48.0869 7.92573L48.6628 7.07533L49.7002 6.04806L50.7379 5.0208L52.1066 4.10996L53.4757 3.19909L54.9319 2.5496L56.3882 1.9001L57.9383 1.43042L59.4884 0.960751L60.9606 0.67553L62.4333 0.390313L64.2537 0.195972L66.0741 0.00163273L69.3107 0.000816366L72.5473 0L74.7723 0.140133L76.9973 0.280266L79.0299 0.540111L81.062 0.799958L81.7605 0.949688L82.4589 1.09942V5.06464V9.02984H82.4151H82.3714L81.4342 8.71121L80.4971 8.39258L79.2762 8.10613L78.0553 7.81965L76.3136 7.61598L74.5715 7.41231H72.7469H70.9219L69.7793 7.55421L68.6363 7.69614L67.5577 7.96546L66.4786 8.23482L65.0826 8.91101L63.6866 9.58724L62.7894 10.488L61.8919 11.3887L61.4486 12.2936L61.0052 13.1985L60.8112 14.1132L60.6171 15.0281L60.6196 15.8368L60.6221 16.6456L60.8107 17.7026L60.9993 18.7596L61.4637 19.7245L61.9281 20.6894L62.4434 21.2808L62.9583 21.8722L63.663 22.3228L64.3678 22.7735L65.4236 23.1409L66.4791 23.5083L68.7041 23.5141L70.9294 23.52L71.3003 23.4163L71.6708 23.3127V19.3389V15.3651H77.8069H83.9429V22.369V29.373L83.4369 29.5076L82.9313 29.6421L81.1109 29.9743L79.2905 30.3065L77.537 30.517L75.784 30.7274L73.6264 30.8637L71.4688 31L68.6367 30.9822L65.8046 30.9645L64.6149 30.85H64.6145ZM99.855 15.5614V0.526115L113.711 0.572029L127.568 0.617939L128.849 0.853392L130.13 1.08884L131.209 1.35942L132.288 1.63L133.636 2.28578L134.985 2.94157L135.708 3.65406L136.432 4.36653L136.748 4.86787L137.065 5.36922L137.326 6.15486L137.587 6.94055L137.675 7.74929L137.763 8.55804L137.62 9.56898L137.478 10.5799L137.008 11.5396L136.538 12.4993L135.593 13.3906L134.648 14.2819L133.265 14.9543L131.883 15.6266L130.363 16.0158L128.842 16.405L128.764 16.4829L128.686 16.5608L129.206 16.6464L129.725 16.7321L130.669 17.0045L131.613 17.2769L132.521 17.7514L133.428 18.2259L134.283 19.0093L135.139 19.7926L135.553 20.578L135.967 21.3633L136.306 22.3134L136.645 23.2634L137.206 25.7505L137.768 28.2377L138.085 29.1812L138.403 30.1248L138.495 30.3607L138.587 30.5966H131.098H123.609L123.468 29.8889L123.327 29.1812L122.914 26.6537L122.502 24.1262L122.241 23.2839L121.981 22.4416L121.595 21.8351L121.21 21.2285L120.51 20.8486L119.81 20.4686L118.767 20.3767L117.723 20.285L116.004 20.3264L114.284 20.3678V25.4822V30.5966H107.07H99.855V15.5614ZM120.417 13.4089L121.358 13.2098L121.968 12.8329L122.578 12.456L122.887 11.8973L123.196 11.3386L123.272 10.6897L123.349 10.0408L123.194 9.46613L123.039 8.89148L122.641 8.43853L122.243 7.98553L121.592 7.70586L120.942 7.4262L120.074 7.28548L119.207 7.14476L116.408 7.14375L113.61 7.14274V10.3778V13.6128L116.543 13.6104L119.477 13.6081L120.417 13.4089ZM152.583 15.5672V0.537914H168.901H185.218V4.10992V7.68192H175.913H166.608V9.83859V11.9953H175.509H184.409V15.5663V19.1373L175.542 19.172L166.676 19.2066L166.638 21.2622L166.601 23.3178H176.044H185.488V26.9572V30.5966H169.035H152.583V15.5672ZM200.591 15.5672V0.537914H211.368H222.145L224.054 6.36766L225.964 12.1974L227.538 16.9826L229.113 21.7677L229.148 11.1528L229.182 0.537914H235.385H241.587V15.568V30.5982L230.986 30.5637L220.384 30.5292L216.725 19.6447L213.066 8.76023H212.964H212.863V19.6784V30.5966H206.727H200.591V15.5672ZM257.096 15.5672V0.537914H273.345H289.595V4.10992V7.68192H280.358H271.12V9.83859V11.9953H279.953H288.786V15.5663V19.1373L279.987 19.1719L271.188 19.2066L271.151 21.2622L271.113 23.3178H280.557H290V26.9572V30.5966H273.548H257.096V15.5672Z" fill="#474747"/>
<path d="M3.39124 30.8987L3.4851 30.7973L7.76008 26.6419L12.0351 22.4865H21.5175H31V26.7432V31H17.1487H3.29738L3.39124 30.8987ZM0 14.4114V1H4.38877H8.77754V10.1562V19.3124L4.38877 23.5676L0 27.8227V14.4114ZM13.3753 9.51352V1H22.1507H30.9262L30.9631 9.51352L31 18.0271L22.1876 18.027H13.3753V9.51352Z" fill="#474747"/>
</svg>
