<svg width="278" height="41" viewBox="0 0 278 41" fill="none" xmlns="http://www.w3.org/2000/svg">
<path d="M83.1729 7.66821H91.038V17.1067H94.7235L104.645 7.66821H115.345L101.455 20.2275L116.974 33.3544H105.849L94.5104 23.491H91.038V33.3544H83.1729V7.66821Z" fill="#474747"/>
<path d="M128.49 20.2983H141.493C143.618 20.2983 144.398 19.4475 144.398 17.6023V16.7505C144.398 14.4805 143.264 14.0556 140.784 14.0556H128.49V20.2983ZM120.625 7.66919H144.363C150.422 7.66919 152.051 10.6838 152.051 15.2958V16.9286C152.051 20.3691 151.271 22.3913 147.657 23.2431V23.314C149.996 23.7399 151.945 24.7697 151.945 28.9912V33.3543H144.079V30.2679C144.079 27.5709 143.3 26.6847 140.855 26.6847H128.49V33.3543H120.625V7.66919Z" fill="#474747"/>
<path d="M169.589 23.2795H179.653L174.55 13.6275L169.589 23.2795ZM169.448 7.66699H179.687L193.789 33.3553H185.039L182.594 28.8141H166.649L164.346 33.3553H155.56L169.448 7.66699Z" fill="#474747"/>
<path d="M197.298 7.66821H209.379L218.273 24.2012L227.165 7.66821H239.248V33.3544H231.595V14.9064H231.524L221.214 33.3544H215.333L205.022 14.9064H204.951V33.3544H197.298V7.66821Z" fill="#474747"/>
<path d="M254.553 20.5118H266.778C268.619 20.5118 269.328 19.306 269.328 17.7805V16.787C269.328 15.048 268.479 14.0546 266.104 14.0546H254.553V20.5118ZM246.688 7.66821H268.124C275.601 7.66821 277.408 11.4305 277.408 16.4674V18.6666C277.408 22.4987 275.741 26.8982 270.18 26.8982H254.553V33.3554H246.688V7.66821Z" fill="#474747"/>
<path d="M60.5331 7.62646H35.6513L22.1455 18.7207H44.6104L60.5331 7.62646Z" fill="#474747"/>
<path d="M60.5622 33.2941H35.6783L22.1777 22.2009H44.6396L60.5622 33.2941Z" fill="#474747"/>
<path d="M0 18.7207H21.867V7.62646H0V18.7207Z" fill="#474747"/>
<path d="M0 33.2941H21.867V22.2009H0V33.2941Z" fill="#474747"/>
<path d="M0 4.13924H61.2851V0H0V4.13924Z" fill="#474747"/>
<path d="M0 40.9133H61.2851V36.772H0V40.9133Z" fill="#474747"/>
</svg>
