<svg width="274" height="57" viewBox="0 0 274 57" fill="none" xmlns="http://www.w3.org/2000/svg">
<g clip-path="url(#clip0_112_311)">
<path d="M119.606 28.5C119.606 47.2901 119.705 57 119.937 57C120.169 57 120.269 47.2901 120.269 28.5C120.269 9.70988 120.169 -5.39422e-06 119.937 -5.39422e-06C119.705 -5.39422e-06 119.606 9.70988 119.606 28.5Z" fill="#474747"/>
<path d="M268.865 17.3981C268.401 17.8289 268.036 18.4585 268.069 18.7899C268.069 19.3202 268.103 19.3202 268.335 18.7237C268.666 17.9946 269.594 17.0998 270.356 16.8016C270.753 16.669 270.72 16.6027 270.256 16.6027C269.925 16.5696 269.295 16.9341 268.865 17.3981Z" fill="#474747"/>
<path d="M272.012 17.1661C273.47 17.8951 274 19.2207 273.304 20.48C272.111 22.6672 269.693 22.7004 268.633 20.5463C268.169 19.6184 268.036 19.5521 268.036 20.1155C268.036 20.5132 268.5 21.2091 269.096 21.7062C269.958 22.4353 270.388 22.5678 271.316 22.4021C272.708 22.2033 274 20.8777 274 19.6847C274 18.094 272.807 16.6027 271.515 16.5696C271.051 16.5696 271.184 16.7353 272.012 17.1661Z" fill="#474747"/>
<path d="M269.726 19.4528C269.759 20.5133 269.859 20.9772 269.925 20.447C270.024 19.7511 270.256 19.5522 270.886 19.5522C271.515 19.5522 271.681 19.7179 271.681 20.3476C271.681 20.8115 271.813 21.2423 271.946 21.3418C272.178 21.4743 272.211 19.5191 272.045 17.7958C272.012 17.6633 271.482 17.5638 270.852 17.5638H269.693L269.726 19.4528ZM271.681 18.558C271.681 19.0551 271.449 19.2208 270.852 19.2208C270.256 19.2208 270.024 19.0551 270.024 18.558C270.024 18.0609 270.256 17.8952 270.852 17.8952C271.449 17.8952 271.681 18.0609 271.681 18.558Z" fill="#474747"/>
<path d="M0 28.9971V39.436H7.95163H15.9033V36.6192V33.8023H11.4636C7.78597 33.8023 6.99081 33.7029 6.82515 33.3052C6.72576 33.007 6.69262 29.5936 6.72576 25.6831L6.79202 18.5581H3.41258H0V28.9971Z" fill="#474747"/>
<path d="M16.5659 26.4121C16.5659 33.3714 16.6653 34.465 17.1954 35.6581C18.587 38.74 22.2315 40.2976 27.4 40.0325C30.7132 39.8668 32.7011 39.1377 34.3577 37.4807C36.1468 35.7243 36.445 34.0011 36.445 25.7825V18.5581H32.9662H29.4873V25.8156C29.4873 32.2447 29.4211 33.1395 28.9241 33.7691C27.6982 35.2604 24.3188 34.9621 23.5567 33.272C23.3248 32.7418 23.1923 29.9581 23.1923 25.5174V18.5581H19.8791H16.5659V26.4121Z" fill="#474747"/>
<path d="M37.77 28.9971V39.436H43.6675C50.5589 39.436 52.3149 39.0715 54.3691 37.2157C56.0588 35.6913 56.8871 34.0674 57.2847 31.6151C58.0467 26.611 56.6883 22.2366 53.7727 20.2151C51.851 18.9227 49.6975 18.5581 43.5018 18.5581H37.77V28.9971ZM48.571 24.3575C50.2276 25.0203 50.824 26.611 50.6252 29.7593C50.3932 33.0401 49.6312 33.8686 46.6493 34.0674L44.562 34.2L44.6283 29.2953C44.6283 26.5779 44.6946 24.2581 44.6946 24.0924C44.7608 23.6948 47.3451 23.8273 48.571 24.3575Z" fill="#474747"/>
<path d="M56.6553 18.6907C56.6553 18.8564 60.8961 36.586 61.3269 38.1767L61.6582 39.436H65.0708C68.3839 39.436 68.5165 39.4029 68.6821 38.6738C68.7815 38.2762 69.2785 35.5587 69.7755 32.6756C70.405 29.0965 70.7694 27.6384 70.9019 28.2017C71.0345 28.6325 71.5646 31.35 72.0616 34.2L73.0224 39.436H76.4018C79.3506 39.436 79.8144 39.3698 79.9801 38.8395C80.1457 38.3093 81.1065 34.2663 83.5252 24.0261C84.0553 21.6401 84.5854 19.4529 84.6848 19.1215C84.8504 18.6244 84.5523 18.5581 81.6035 18.5581H78.3235L77.3958 24.4238C76.8657 27.6715 76.3687 30.5215 76.2362 30.7535C76.1036 30.9855 75.5073 28.3343 74.8778 24.8546L73.7844 18.5581H70.9019H68.0526L66.7605 25.0866C66.0647 28.6988 65.4352 31.4825 65.4021 31.3168C65.2695 30.9523 63.2816 19.0221 63.2816 18.7238C63.2816 18.6244 61.7907 18.5581 59.9685 18.5581C58.1462 18.5581 56.6553 18.6244 56.6553 18.6907Z" fill="#474747"/>
<path d="M85.8113 18.7902C85.8113 18.9559 85.7782 23.5954 85.7782 29.1628L85.7119 39.2704L89.0914 39.3698L92.4377 39.4692V28.9971V18.5582H89.1245C87.3022 18.5582 85.8113 18.6576 85.8113 18.7902Z" fill="#474747"/>
<path d="M94.0942 28.9971V39.436H97.4074H100.721V36.1884C100.721 33.2058 100.787 32.8744 101.483 32.2116C101.913 31.8139 102.344 31.4825 102.443 31.4825C102.543 31.4825 103.702 33.2721 105.028 35.4593L107.446 39.436H111.522H115.597L111.488 33.007C109.202 29.461 107.347 26.4453 107.347 26.2796C107.347 26.1471 109.037 24.3575 111.058 22.3029L114.802 18.5581H110.76H106.751L103.835 21.9384L100.886 25.2855L100.787 21.9384L100.687 18.5581H97.4074H94.0942V28.9971Z" fill="#474747"/>
<path d="M124.907 29.3286C124.907 39.5356 124.907 39.7676 125.569 39.7676C126.199 39.7676 126.232 39.5025 126.298 30.4554L126.398 21.1432L133.819 30.4554C139.717 37.8786 141.406 39.7676 141.936 39.7013C142.632 39.6019 142.632 39.4693 142.566 29.3286C142.533 20.2815 142.467 19.0554 142.003 18.9559C141.705 18.8897 141.473 18.9559 141.473 19.1216C141.473 19.2542 141.473 23.4629 141.44 28.4339C141.44 33.4711 141.307 37.4478 141.141 37.3815C140.976 37.3153 137.563 33.1397 133.554 28.0693C128.352 21.5408 126.033 18.8897 125.569 18.8897C124.907 18.8897 124.907 19.1216 124.907 29.3286Z" fill="#474747"/>
<path d="M151.512 19.2212C150.021 19.5526 148.828 20.4142 148.099 21.6403C147.503 22.6014 147.437 23.3305 147.437 29.3287C147.437 39.4694 147.503 39.5357 157.31 39.7014C163.34 39.8339 163.737 39.8008 163.605 39.2374C163.505 38.6741 163.108 38.6409 158.801 38.7403C153.301 38.8398 150.849 38.4421 149.723 37.2491C148.994 36.4869 148.927 36.1223 148.927 33.2392V30.0909L155.719 30.1241C162.909 30.1572 163.671 30.0578 163.671 29.2956C163.671 28.8979 162.478 28.8316 156.216 28.8316H148.762V26.0479C148.762 22.6677 149.06 21.7398 150.485 20.8781C151.479 20.2816 152.174 20.2153 157.641 20.2153C163.439 20.2153 163.671 20.1822 163.671 19.5526C163.671 18.9229 163.472 18.8898 158.138 18.9229C155.057 18.956 152.075 19.0555 151.512 19.2212Z" fill="#474747"/>
<path d="M166.057 19.6185C166.289 20.215 167.514 24.0261 170.297 32.7418C173.478 42.6836 173.147 42.7831 177.156 30.8197C179.243 24.5232 180.237 21.9051 180.403 22.3691C180.535 22.7336 181.86 26.8429 183.351 31.4825C185.704 38.8726 186.135 39.9331 186.764 40.0325C187.427 40.1319 187.725 39.436 190.508 30.7534C192.164 25.5836 193.655 20.9441 193.854 20.4139C194.252 19.1546 194.252 19.1546 193.457 19.2871C192.86 19.3865 192.396 20.5464 190.011 28.1022C188.487 32.8743 187.162 37.0499 187.029 37.3813C186.863 37.7458 186.366 36.586 185.472 33.8022C184.743 31.5156 183.418 27.3069 182.49 24.4238C180.999 19.7511 180.767 19.2208 180.105 19.2208C179.409 19.2208 179.111 19.9831 176.427 28.4999C174.803 33.6034 173.412 37.6796 173.312 37.6133C173.246 37.5139 171.855 33.3714 170.297 28.4005C167.713 20.2482 167.349 19.3865 166.653 19.2871C166.123 19.1877 165.957 19.2871 166.057 19.6185Z" fill="#474747"/>
<path d="M203.098 28.0027C203.098 34.1003 203.231 37.0166 203.496 37.6131C203.728 38.1102 204.49 38.8062 205.219 39.2038C206.444 39.8666 207.173 39.9329 212.971 40.0323C219.233 40.1317 219.333 40.1317 219.333 39.4689C219.333 38.8062 219.2 38.773 213.369 38.773C207.008 38.773 205.484 38.4748 204.788 37.1823C204.556 36.7515 204.423 33.4044 204.423 27.8701C204.423 19.4527 204.39 19.2207 203.761 19.2207C203.131 19.2207 203.098 19.4527 203.098 28.0027Z" fill="#474747"/>
<path d="M221.32 29.6597C221.32 39.8667 221.32 40.0986 221.983 40.0986C222.646 40.0986 222.646 39.8667 222.646 29.6597C222.646 19.4527 222.646 19.2207 221.983 19.2207C221.32 19.2207 221.32 19.4527 221.32 29.6597Z" fill="#474747"/>
<path d="M227.615 29.6265C227.615 39.8667 227.615 40.0986 228.278 40.0986C228.941 40.0986 228.941 39.8667 228.941 30.6539V21.176L236.428 30.5544C242.061 37.6463 244.082 39.9329 244.612 39.9329H245.341L245.44 29.5603C245.506 19.3864 245.506 19.2207 244.844 19.2207C244.181 19.2207 244.181 19.4196 244.181 28.4998C244.181 33.6033 244.082 37.7789 243.949 37.7457C243.784 37.7457 240.404 33.6033 236.395 28.5661C231.26 22.1039 228.874 19.3533 228.377 19.287L227.615 19.1876V29.6265Z" fill="#474747"/>
<path d="M254.154 19.5523C252.663 19.9168 251.437 20.8447 250.775 22.1372C250.344 22.9656 250.245 24.3575 250.278 30.0575C250.311 37.8122 250.41 38.1767 252.73 39.3366C253.757 39.8337 254.949 39.9662 260.184 40.0325C266.281 40.1651 266.38 40.1319 266.38 39.4691C266.38 38.8063 266.247 38.7732 260.416 38.7732C253.591 38.7732 252.763 38.5412 251.934 36.5529C251.471 35.4592 251.338 31.6151 251.736 30.5546C251.835 30.2232 253.492 30.1569 259.058 30.1569C265.32 30.1901 266.214 30.1569 266.314 29.693C266.413 29.229 265.585 29.1627 258.958 29.1627H251.471V26.2465C251.471 22.9325 251.835 22.0046 253.458 21.0767C254.519 20.447 255.148 20.3808 260.482 20.3808C265.883 20.3808 266.38 20.3476 266.38 19.7842C266.38 19.254 265.916 19.2209 260.847 19.254C257.766 19.2872 254.784 19.4197 254.154 19.5523Z" fill="#474747"/>
</g>
<defs>
<clipPath id="clip0_112_311">
<rect width="274" height="57" fill="white"/>
</clipPath>
</defs>
</svg>
