<svg width="187" height="70" viewBox="0 0 187 70" fill="none" xmlns="http://www.w3.org/2000/svg">
<path d="M140.68 69.0014C132.543 66.9681 127.726 64.3195 122.195 58.8366L118.464 55.1377L116.574 51.748C114.359 47.7754 112.654 42.3131 112.272 37.9685L112 34.8794L112.551 30.9607L113.102 27.0421L114.377 23.6882C115.079 21.8436 116.533 18.8957 117.61 17.1373L119.569 13.9403L123.046 10.5507L126.523 7.161L131.231 4.73529L135.938 2.30957L140.656 1.15478L145.374 0L151.457 0.238295L157.54 0.476588L161.702 1.88565C163.992 2.66064 167.548 4.26601 169.606 5.45314L173.347 7.61162L176.262 10.5152C177.866 12.1122 180.307 15.029 181.686 16.9971L184.195 20.5753L185.597 24.5586L187 28.5419V35.0605V41.579L185.568 45.6488C184.781 47.8871 183.896 49.9991 183.602 50.3421C183.308 50.6851 182.303 52.1391 181.37 53.5732C180.436 55.0073 178.236 57.5886 176.482 59.3095L173.291 62.4385L170.305 64.188C166.243 66.5676 161.849 68.2661 157.313 69.2105L153.52 70L148.944 69.9614L144.368 69.9233L140.68 69.0014ZM160.875 58.4767C161.254 57.8749 161.489 57.3289 161.397 57.2632C161.305 57.1981 159.687 56.6036 157.804 55.9423C152.653 54.1354 146.737 51.0565 142.919 48.1963C141.042 46.7901 139.231 45.4712 138.895 45.2654L138.282 44.8912L138.353 45.3211C138.484 46.1259 137.661 48.0976 137.193 48.0976C136.937 48.0976 136.728 48.4268 136.728 48.8291V49.5606L139.618 51.4592C144.598 54.7309 150.218 57.1986 156.223 58.7521C160.054 59.7429 160.077 59.7413 160.875 58.4767ZM164.948 51.47C166.581 48.1681 166.352 46.9785 164.667 50.004L163.55 52.0088L163.851 50.5632L164.152 49.1177L163.349 48.8126C162.907 48.6448 162.546 48.2841 162.546 48.011V47.5146L163.035 47.8137L163.524 48.1127L163.873 47.0239L164.222 45.9351L163.272 45.2476L162.322 44.5601L162.885 43.8518C163.194 43.4622 163.578 42.6155 163.738 41.9702L164.028 40.7968H163.55C163.287 40.7968 162.42 41.9668 161.624 43.3967L160.175 45.9967L159.545 46.0042C156.778 46.0371 149.394 39.8408 145.31 34.0594C145.225 33.9391 144.025 34.3645 142.644 35.0048L140.133 36.1689L140.143 38.5143L140.153 40.8597L143.313 44.0106L146.474 47.1616L149.948 49.2046C153.756 51.4435 159.899 53.8131 163.165 54.3022C163.361 54.3314 164.164 53.0569 164.948 51.47ZM167.121 45.3924L166.844 44.708L166.803 45.7075C166.78 46.2572 166.904 46.5652 167.079 46.3919C167.254 46.2186 167.273 45.7689 167.121 45.3924ZM159.164 40.7142C159.637 39.8083 160.467 37.4885 161.007 35.5591L161.989 32.051L162.34 27.1156L162.69 22.1802L162.055 17.8787C161.705 15.5128 161.292 13.2482 161.136 12.8461L160.852 12.1151L158.406 12.1264C153.508 12.149 140.416 15.9032 140.416 17.2852C140.416 17.469 140.796 18.1561 141.26 18.8121C142.275 20.2458 142.663 19.8775 137.387 22.49C134.996 23.6738 133.04 24.7611 133.04 24.9061C133.04 25.0511 134.216 24.5797 135.654 23.8584C137.093 23.1372 140.09 21.9587 142.316 21.2395L146.363 19.932L150.694 19.6025L155.025 19.273L155.393 21.2141L155.761 23.1552L155.407 26.1093L155.053 29.0634L153.723 32.453C152.992 34.3174 152.161 36.1331 151.878 36.4879L151.363 37.1331L151.656 37.8884C151.945 38.6338 157.161 42.3613 157.915 42.3613C158.129 42.3613 158.691 41.6201 159.164 40.7142ZM165.532 39.9277L165.18 39.58L164.829 39.9277L164.478 40.2753H165.18H165.883L165.532 39.9277ZM164.478 38.3632L164.127 38.0156V38.7109V39.4062L164.478 39.0585L164.829 38.7109L164.478 38.3632ZM165.18 36.8857C165.18 36.7423 165.062 36.6249 164.917 36.6249C164.772 36.6249 164.653 36.7423 164.653 36.8857C164.653 37.0291 164.772 37.1464 164.917 37.1464C165.062 37.1464 165.18 37.0291 165.18 36.8857ZM134.357 36.1034C134.536 35.8166 134.564 35.582 134.419 35.582C134.274 35.582 134.009 35.8166 133.83 36.1034C133.651 36.3903 133.623 36.6249 133.768 36.6249C133.913 36.6249 134.178 36.3903 134.357 36.1034ZM143.917 31.708C145.698 31.2573 148.233 30.8886 149.55 30.8886H151.946L152.271 30.3679C152.45 30.0815 152.732 28.2374 152.899 26.2697L153.202 22.6922L152.699 22.3842C152.037 21.9796 145.983 23.2679 143.356 24.3724L141.289 25.241L141.963 25.6529L142.636 26.0649L142.018 26.4435L141.399 26.8222L141.675 27.535L141.951 28.2477L141.447 28.556C141.17 28.7255 140.943 29.4298 140.943 30.1211V31.378L138.045 33.2127C134.365 35.5428 134.283 36.0694 137.914 34.0592C139.435 33.2167 142.137 32.1587 143.917 31.708ZM124.61 31.1493C124.61 31.0059 124.491 30.8886 124.346 30.8886C124.201 30.8886 124.083 31.0059 124.083 31.1493C124.083 31.2927 124.201 31.4101 124.346 31.4101C124.491 31.4101 124.61 31.2927 124.61 31.1493ZM129.649 27.1833L130.006 26.6127L128.917 27.189C128.319 27.5059 127.669 28.0221 127.473 28.336L127.117 28.9067L128.205 28.3304C128.803 28.0134 129.453 27.4973 129.649 27.1833ZM166.761 28.0204C166.761 27.877 166.642 27.7597 166.498 27.7597C166.353 27.7597 166.234 27.877 166.234 28.0204C166.234 28.1638 166.353 28.2812 166.498 28.2812C166.642 28.2812 166.761 28.1638 166.761 28.0204ZM131.196 26.1952C131.375 25.9084 131.403 25.6737 131.258 25.6737C131.113 25.6737 130.848 25.9084 130.669 26.1952C130.49 26.482 130.462 26.7167 130.607 26.7167C130.752 26.7167 131.017 26.482 131.196 26.1952ZM132.513 25.413C132.513 25.2696 132.394 25.1523 132.25 25.1523C132.105 25.1523 131.986 25.2696 131.986 25.413C131.986 25.5564 132.105 25.6737 132.25 25.6737C132.394 25.6737 132.513 25.5564 132.513 25.413ZM168.833 20.0914C168.814 19.5765 168.391 17.6298 167.894 15.7655L166.991 12.3759L165.486 12.2039L163.982 12.032L164.325 13.2469C164.514 13.9151 165.064 16.4829 165.548 18.9531L166.427 23.4445L167.648 22.2362L168.869 21.0278L168.833 20.0914Z" fill="#474747"/>
<path d="M0.710863 44.0532V35.5811C0.710863 34.2334 0.62761 33.0879 0.461103 32.1445C0.307402 31.1888 0.153701 30.4721 0 29.9943H3.95777C4.06023 30.2883 4.16914 30.7294 4.2844 31.3175C4.39966 31.9056 4.48292 32.365 4.53418 32.6958C5.2386 31.7279 6.00713 30.9928 6.83966 30.4905C7.6722 29.9759 8.41508 29.7186 9.06829 29.7186C10.426 29.7186 11.3866 30.2332 11.9502 31.2623C12.5265 32.2793 12.8147 33.4922 12.8147 34.9011L9.60625 35.3789C9.55504 34.7541 9.39493 34.2518 9.12595 33.872C8.85697 33.4922 8.41508 33.3023 7.80026 33.3023C7.48008 33.3023 7.11504 33.4738 6.70515 33.8169C6.29531 34.1476 5.91107 34.5764 5.55243 35.1033C5.1938 35.6301 4.92482 36.1815 4.7455 36.7573V44.0532H0.710863ZM19.3662 44.384C18.4056 44.384 17.5474 44.188 16.7917 43.7959C16.0489 43.4039 15.4661 42.8832 15.0434 42.2338C14.6207 41.5845 14.4094 40.8862 14.4094 40.1388C14.4094 39.4282 14.5759 38.7237 14.9089 38.0253C15.2547 37.3148 15.8439 36.7022 16.6765 36.1876C17.5218 35.673 18.6874 35.3483 20.1731 35.2136C20.5062 35.1768 20.9353 35.1401 21.4604 35.1033C21.9983 35.0665 22.5171 35.0359 23.0166 35.0114C23.5161 34.9747 23.862 34.9563 24.0541 34.9563V34.2763C24.0541 33.7617 23.7467 33.3881 23.1319 33.1553C22.5299 32.9225 21.6845 32.8061 20.5958 32.8061C19.8402 32.8061 19.078 32.9531 18.3095 33.2471C17.5539 33.5412 16.7533 33.97 15.9079 34.5336C15.9208 34.2273 15.9336 33.7004 15.9464 32.9531C15.972 32.1935 16.0105 31.5319 16.0617 30.9683C16.8814 30.662 17.7396 30.3802 18.6361 30.1229C19.5455 29.8534 20.6086 29.7186 21.8254 29.7186C23.7083 29.7186 25.2197 30.0923 26.3596 30.8396C27.5123 31.5748 28.0887 32.4875 28.0887 33.578V38.9626C28.0887 39.955 28.1784 40.8616 28.3577 41.6825C28.5498 42.4911 28.7996 43.2814 29.107 44.0532H25.2069C25.1172 43.8572 25.0019 43.5938 24.861 43.263C24.7201 42.9322 24.5984 42.5769 24.496 42.1971C23.689 42.969 22.8437 43.5264 21.9599 43.8694C21.0761 44.2125 20.2116 44.384 19.3662 44.384ZM20.4229 41.2415C21.0249 41.2415 21.6077 41.1189 22.1712 40.8739C22.7348 40.6289 23.3624 40.0591 24.0541 39.1648V37.5108C23.7723 37.523 23.292 37.5597 22.6131 37.621C21.9343 37.6701 21.4092 37.719 21.0377 37.7681C20.0387 37.8661 19.3534 38.0927 18.982 38.448C18.6233 38.7911 18.444 39.1893 18.444 39.6426C18.444 40.0836 18.6233 40.4635 18.982 40.782C19.3534 41.0883 19.8338 41.2415 20.4229 41.2415ZM38.7901 51C37.6117 51 36.4206 50.8468 35.2165 50.5405C34.0254 50.2465 33.0327 49.7871 32.2386 49.1622C31.4445 48.5497 31.0475 47.7655 31.0475 46.8099C31.0475 45.2784 32.3539 44.0165 34.9668 43.0241C34.9668 43.0241 35.1333 43.0486 35.4663 43.0976C35.8121 43.1343 36.2092 43.1895 36.6575 43.263C37.1058 43.3243 37.5029 43.4039 37.8487 43.5019C38.2073 43.5877 38.3994 43.6796 38.4251 43.7776C37.4388 44.1206 36.7087 44.4514 36.2348 44.7699C35.7609 45.0885 35.4471 45.3887 35.2934 45.6705C35.1525 45.9645 35.0821 46.2524 35.0821 46.5342C35.0821 46.914 35.4023 47.2877 36.0427 47.6552C36.6959 48.0228 37.6822 48.2066 39.0014 48.2066C40.0645 48.2066 40.9739 48.0044 41.7296 47.6001C42.4853 47.1958 42.8631 46.7915 42.8631 46.3872C42.8631 45.8971 42.5365 45.4867 41.8833 45.1559C41.2301 44.8251 40.0069 44.5617 38.2137 44.3657C36.2924 44.1574 34.9796 43.7408 34.2751 43.1159C33.5835 42.4789 33.2377 41.805 33.2377 41.0944C33.2377 40.6778 33.4234 40.2307 33.7948 39.7529C34.1791 39.2628 34.717 38.883 35.4087 38.6134L38.8093 39.2383C37.9768 39.4343 37.394 39.6487 37.061 39.8815C36.7279 40.1143 36.5614 40.3348 36.5614 40.5431C36.5614 40.8126 36.8689 41.0393 37.4836 41.2231C38.0984 41.3946 39.3281 41.5845 41.1724 41.7928C43.3114 42.0256 44.7972 42.534 45.6298 43.3181C46.4751 44.09 46.8978 45.0701 46.8978 46.2585C46.8978 46.9937 46.6544 47.6552 46.1677 48.2433C45.681 48.8314 45.0341 49.3276 44.2272 49.7319C43.4203 50.1485 42.5429 50.4609 41.5951 50.6692C40.6473 50.8897 39.7123 51 38.7901 51ZM38.5019 39.8631C37.2979 39.8631 36.2092 39.6487 35.2358 39.2199C34.2751 38.7911 33.5067 38.1969 32.9303 37.4372C32.3667 36.6776 32.0849 35.8077 32.0849 34.8276C32.0849 33.8842 32.3667 33.0266 32.9303 32.2548C33.5067 31.4829 34.2751 30.8703 35.2358 30.417C36.2092 29.9514 37.2979 29.7186 38.5019 29.7186C39.7187 29.7186 40.8074 29.9392 41.768 30.3802C42.7415 30.809 43.5099 31.3971 44.0735 32.1445C44.6371 32.8918 44.9189 33.7372 44.9189 34.6806C44.9189 35.673 44.6371 36.5613 44.0735 37.3454C43.5099 38.1295 42.7415 38.7482 41.768 39.2015C40.8074 39.6426 39.7187 39.8631 38.5019 39.8631ZM38.5019 37.1616C39.296 37.1616 39.9492 36.9288 40.4616 36.4632C40.9739 35.9854 41.2301 35.3912 41.2301 34.6806C41.2301 34.068 40.9739 33.535 40.4616 33.0817C39.9492 32.6162 39.296 32.3834 38.5019 32.3834C37.7078 32.3834 37.0482 32.6162 36.523 33.0817C36.0107 33.535 35.7545 34.068 35.7545 34.6806C35.7545 35.3912 36.0107 35.9854 36.523 36.4632C37.0482 36.9288 37.7078 37.1616 38.5019 37.1616ZM42.5365 33.4493L41.5951 31.0969C42.2356 30.7049 42.9848 30.3925 43.843 30.1597C44.714 29.9147 45.5016 29.7676 46.2061 29.7186L46.0717 32.6958C45.5465 32.7081 44.9893 32.7693 44.4001 32.8796C43.8238 32.9899 43.2026 33.1797 42.5365 33.4493ZM50.2216 44.0532C50.2216 44.0532 50.2216 43.8082 50.2216 43.3181C50.2216 42.8158 50.2216 42.1787 50.2216 41.4069C50.2216 40.635 50.2216 39.8325 50.2216 38.9994C50.2216 38.1662 50.2216 37.4189 50.2216 36.7573C50.2216 35.4096 50.209 34.1293 50.1833 32.9163C50.1576 31.6912 50.0936 30.7171 49.9907 29.9943H54.256C54.256 29.9943 54.256 30.2148 54.256 30.6559C54.256 31.0847 54.256 31.636 54.256 32.3099C54.256 32.9715 54.256 33.6637 54.256 34.3866C54.256 35.0971 54.256 35.7404 54.256 36.3162C54.256 36.8798 54.256 37.278 54.256 37.5108C54.256 38.0989 54.2628 38.8156 54.2754 39.661C54.3011 40.4941 54.3331 41.315 54.3714 42.1236C54.4228 42.9199 54.4805 43.5631 54.5445 44.0532H50.2216ZM52.2388 27.3847C51.509 27.3847 50.9005 27.1641 50.4136 26.7231C49.9399 26.2698 49.7028 25.6878 49.7028 24.9772C49.7028 24.2666 49.9399 23.6846 50.4136 23.2313C50.9005 22.778 51.509 22.5513 52.2388 22.5513C52.9691 22.5513 53.5708 22.778 54.0451 23.2313C54.5188 23.6846 54.7554 24.2666 54.7554 24.9772C54.7554 25.6878 54.5188 26.2698 54.0451 26.7231C53.5708 27.1641 52.9691 27.3847 52.2388 27.3847ZM59.4435 44.0532V28.4873C59.4435 27.1396 59.4178 25.9206 59.3669 24.8301C59.3155 23.7398 59.2452 22.7964 59.1555 22H63.4779V37.5108C63.4779 38.0989 63.4848 38.8156 63.4973 39.661C63.5231 40.4941 63.5551 41.3088 63.5934 42.1052C63.6448 42.9016 63.7025 43.5509 63.7665 44.0532H59.4435ZM71.4707 44.384C70.7404 44.384 70.1386 44.1635 69.6644 43.7224C69.1906 43.2814 68.9535 42.7055 68.9535 41.9949C68.9535 41.2843 69.1906 40.7085 69.6644 40.2674C70.1386 39.8141 70.7404 39.5875 71.4707 39.5875C72.2004 39.5875 72.8027 39.8141 73.2764 40.2674C73.7507 40.7085 73.9873 41.2843 73.9873 41.9949C73.9873 42.7055 73.7507 43.2814 73.2764 43.7224C72.8027 44.1635 72.2004 44.384 71.4707 44.384ZM78.368 50.7978V37.3821C78.368 35.6669 78.3297 34.2028 78.2526 32.9899C78.1886 31.7769 77.9902 30.7784 77.6571 29.9943H81.6149C81.7172 30.2026 81.8195 30.5027 81.9223 30.8948C82.0372 31.2868 82.127 31.7708 82.191 32.3467C82.8572 31.5748 83.6321 30.9438 84.5161 30.4537C85.4127 29.9636 86.3796 29.7186 87.4168 29.7186C88.4928 29.7186 89.4345 30.0188 90.2414 30.6191C91.0483 31.2195 91.6694 32.0465 92.1049 33.1001C92.5529 34.1415 92.7775 35.3361 92.7775 36.6837C92.7775 38.252 92.4889 39.6181 91.9129 40.782C91.3363 41.9337 90.5614 42.8219 89.5882 43.4468C88.6145 44.0716 87.5385 44.384 86.3602 44.384C85.6047 44.384 84.9259 44.2738 84.3236 44.0532C83.7218 43.845 83.0813 43.5509 82.4024 43.1711V46.1115C82.4024 47.2142 82.4281 48.1208 82.4795 48.8314C82.5435 49.5543 82.6395 50.2098 82.7675 50.7978H78.368ZM85.3996 41.2231C86.2836 41.2231 87.0585 40.8555 87.7242 40.1204C88.4031 39.373 88.7425 38.3684 88.7425 37.1064C88.7425 35.8568 88.4991 34.8644 88.0128 34.1293C87.5259 33.3819 86.8471 33.0082 85.9762 33.0082C85.3356 33.0082 84.6824 33.2655 84.0161 33.7801C83.3504 34.2824 82.8127 35.0236 82.4024 36.0038V39.9183C83.1453 40.4451 83.7087 40.7943 84.0933 40.9658C84.4773 41.1373 84.9127 41.2231 85.3996 41.2231ZM96.6776 44.0532V28.4873C96.6776 27.1396 96.6519 25.9206 96.6004 24.8301C96.5496 23.7398 96.4787 22.7964 96.389 22H100.712V37.5108C100.712 38.0989 100.718 38.8156 100.731 39.661C100.757 40.4941 100.789 41.3088 100.827 42.1052C100.879 42.9016 100.936 43.5509 101 44.0532H96.6776Z" fill="#474747"/>
</svg>
