<svg width="125" height="70" viewBox="0 0 125 70" fill="none" xmlns="http://www.w3.org/2000/svg">
<path d="M45.2859 69.5791L43.8566 69.1931L41.9794 68.2026L40.1021 67.2121L38.3506 65.4534L36.5994 63.6947L35.6171 61.8181L34.6352 59.9417L34.2287 58.3755L33.8226 56.8092V54.3857V51.9621L34.2234 50.417L34.6243 48.8718L35.3306 47.4235L36.0369 45.9753L37.4149 44.2975L38.7932 42.6199L40.6274 41.3641L42.4618 40.1083L43.9837 39.5734L45.5058 39.0382L47.3522 38.7753L49.1989 38.5124L51.1678 38.7631L53.1368 39.0137L54.4449 39.456L55.753 39.898L57.1486 40.7315L58.5441 41.5654L58.5229 41.7031L58.5016 41.8408L56.2169 43.9032L53.9318 45.9657L53.6463 45.7302L53.3606 45.4946L51.7811 45.0352L50.2018 44.5759L48.4713 44.7381L46.7408 44.9004L45.3899 45.564L44.039 46.2275L42.7766 47.4951L41.5142 48.7629L40.7919 50.2397L40.0694 51.7165V54.2522V56.7879L40.5506 57.9676L41.0317 59.1474L41.8563 60.3004L42.6811 61.4535L44.0334 62.3839L45.3859 63.3141L47.1624 63.7783L48.9386 64.2427L50.6686 63.9451L52.3986 63.6475L53.6219 63.0341L54.8455 62.4205L56.1743 61.0096L57.5032 59.5987L58.0178 58.4603L58.5324 57.3217L58.5383 56.8621L58.5441 56.4027L54.9733 56.3282L51.4028 56.254L53.7817 54.052L56.1602 51.85H60.5421H64.9239L64.9486 53.2513L64.9731 54.6526L64.9359 55.8537L64.8984 57.0548L64.4885 58.5228L64.0789 59.9908L63.1333 61.8039L62.1878 63.6171L60.3773 65.435L58.567 67.2527L56.7368 68.2184L54.9066 69.184L53.3468 69.5922L51.7869 70L49.251 69.9824L46.715 69.965L45.2859 69.5791ZM1.3921 54.2522V39.839H4.71488H8.03768V51.3162V62.7934H13.7529H19.4681V65.7294V68.6654H10.4301H1.3921V54.2522ZM23.4554 60.0453V51.4251L26.7783 48.5611L30.101 45.6974V57.1813V68.6654H26.7783H23.4554V60.0453ZM68.6454 54.2522V39.839H72.1011H75.5568V45.5776V51.3162H82.6012H89.6455V45.5776V39.839H92.9683H96.2911V54.2522V68.6654H92.9683H89.6455V62.9268V57.1882H82.6012H75.5568V62.9268V68.6654H72.1011H68.6454V54.2522ZM109.051 57.1882V45.711H104.399H99.7468V42.775V39.839H112.373H125V42.775V45.711H120.348H115.696V57.1882V68.6654H112.373H109.051V57.1882ZM77.4176 31.1673L75.6898 30.7771L73.4534 29.6683L71.2167 28.5598L69.1885 26.5257L67.1603 24.4916L66.3163 22.8684L65.472 21.2452L65.0651 19.6761L64.6581 18.1071V15.817V13.527L65.0547 11.9984L65.451 10.4698L66.1113 9.16132L66.7719 7.85286L68.1037 6.24589L69.4355 4.63893L71.1755 3.39223L72.9154 2.14555L74.7014 1.40149L76.4872 0.657417L78.4764 0.32871L80.4655 0L82.6812 0.171018L84.8971 0.342037L86.991 1.03692L89.0849 1.7318L90.569 2.71161L92.053 3.69144L93.5454 5.14998L95.0377 6.60855L95.9516 8.03071L96.8655 9.45286L97.4027 10.9667L97.9402 12.4806L98.0801 15.0515L98.2199 17.6224L97.8927 19.0552L97.5652 20.488L96.6077 22.4701L95.6499 24.4522L93.7756 26.3403L91.9015 28.2283L90.1755 29.2364L88.4493 30.2443L86.7214 30.7968L84.9936 31.349L82.0695 31.4531L79.1455 31.5572L77.4176 31.1673ZM83.4872 25.3025L84.6387 25.1455L85.9811 24.4625L87.3238 23.7794L88.6144 22.5673L89.9049 21.3552L90.6391 19.8539L91.3733 18.3527L91.3691 15.817L91.3651 13.2813L90.7149 11.9468L90.0647 10.6122L88.7255 9.26208L87.386 7.91193L85.791 7.12678L84.1961 6.34164H81.3994H78.6027L76.8347 7.21553L75.0669 8.08943L73.7357 9.55189L72.4044 11.0144L71.8287 12.5482L71.2526 14.0821L71.364 16.3508L71.4754 18.6196L72.2032 20.0442L72.931 21.4689L74.1254 22.6679L75.3195 23.867L76.8115 24.5529L78.3036 25.2387L79.788 25.424L81.272 25.6092L81.8037 25.5343L82.3353 25.4594L83.4872 25.3025ZM1.65793 27.3163V24.3582H9.5487H17.4395L18.5939 23.797L19.7484 23.2358L20.1399 22.4757L20.5314 21.7156V20.8041V19.8927L20.0047 19.2204L19.478 18.5481L18.4454 18.1332L17.4128 17.7183L13.7221 17.5521L10.0314 17.3858L8.24108 17.1334L6.45082 16.881L5.18411 16.4493L3.91741 16.0176L2.80773 15.251L1.69803 14.4845L1.02389 13.0822L0.349736 11.6799L0.174868 10.2994L0 8.91896L0.322651 7.5685L0.645305 6.21803L1.42837 5.13261L2.21143 4.04721L3.46317 3.24973L4.71488 2.45225L6.4043 1.928L8.09368 1.40376H16.0404H23.9871V4.20634V7.00891L17.275 7.02053L10.563 7.03216L9.37434 7.26243L8.18569 7.49269L7.44712 8.32265L6.70856 9.15262V9.75629V10.36L7.14204 10.9814L7.57551 11.6028L8.53761 12.0091L9.4997 12.4154L15.2149 12.6229L20.9301 12.8303L22.2592 13.2812L23.5883 13.7321L24.8623 14.5427L26.1362 15.3533L26.884 16.4526L27.6318 17.5519L27.9686 18.5894L28.3054 19.6268L28.1831 21.5433L28.0606 23.4598L27.3006 24.8616L26.5409 26.2633L25.6529 27.0462L24.7649 27.829L23.4976 28.4739L22.2303 29.1187L20.6498 29.5813L19.0693 30.0438L10.3636 30.1592L1.65793 30.2745V27.3163ZM32.2276 15.817V1.40376H41.2172H50.2071L51.6508 1.83389L53.0948 2.26403L54.3029 2.87832L55.5111 3.49262L56.8283 4.68764L58.1454 5.88265L59.029 7.35897L59.9129 8.83531L60.3214 10.391L60.73 11.9468L60.5952 14.1744L60.4605 16.402L59.5016 18.3501L58.5428 20.2983L56.9258 21.8015L55.3085 23.3047L54.0068 23.9671L52.7051 24.6295L51.1827 25.0277L49.6603 25.4258H44.3997H39.139V27.8279V30.2302H35.6833H32.2276V15.817ZM50.4365 18.8431L51.4998 18.266L52.3523 17.3741L53.2051 16.4823L53.615 15.3153L54.0251 14.1484L54.0225 13.181L54.0198 12.2137L53.3922 10.8602L52.7643 9.50673L51.7848 8.69593L50.8052 7.88513L49.7927 7.58048L48.7799 7.27583H43.9595H39.139V13.4352V19.5946L44.2561 19.5074L49.3732 19.4203L50.4365 18.8431ZM108.987 18.6863L108.918 7.14237L104.332 7.06932L99.7468 6.99629V4.20002V1.40376H112.373H125V4.20002V6.99629L120.415 7.06932L115.829 7.14237L115.76 18.6863L115.691 30.2302H112.373H109.056L108.987 18.6863Z" fill="#474747"/>
<path d="M23 46.0002V43H26.5H30V43.1015V43.2028L27.2308 45.5304L24.4615 47.8577L23.7307 48.429L23 49V46.0002Z" fill="#474747"/>
</svg>
