<svg width="37" height="29" viewBox="0 0 37 29" fill="none" xmlns="http://www.w3.org/2000/svg">
<path d="M17.2695 11.4722V15.2031H13.5562C13.376 15.2031 13.2266 15.3394 13.2266 15.5107V17.3564C13.2266 17.5234 13.376 17.6641 13.5562 17.6641H17.2695V21.395C17.2695 21.5664 17.4102 21.707 17.5771 21.707H19.4229C19.5942 21.707 19.7305 21.5664 19.7305 21.395V17.6641H23.4438C23.624 17.6641 23.7734 17.5234 23.7734 17.3564V15.5107C23.7734 15.3394 23.624 15.2031 23.4438 15.2031H19.7305V11.4722C19.7305 11.3008 19.5942 11.1602 19.4229 11.1602H17.5771C17.4102 11.1602 17.2695 11.3008 17.2695 11.4722ZM34.6719 5.11328H18.8955L13.7407 0.182617C13.6751 0.121216 13.5889 0.0867078 13.499 0.0859375H2.32812C1.55029 0.0859375 0.921875 0.714355 0.921875 1.49219V27.5078C0.921875 28.2856 1.55029 28.9141 2.32812 28.9141H34.6719C35.4497 28.9141 36.0781 28.2856 36.0781 27.5078V6.51953C36.0781 5.7417 35.4497 5.11328 34.6719 5.11328V5.11328ZM32.9141 25.75H4.08594V3.25H12.3696L17.6255 8.27734H32.9141V25.75Z" fill="#434242"/>
</svg>
