<svg width="18" height="18" viewBox="0 0 18 18" fill="none" xmlns="http://www.w3.org/2000/svg">
<path d="M9.0916 0.104546C6.76184 0.130898 4.53475 1.06719 2.88602 2.71344C1.23728 4.35969 0.297632 6.58537 0.267768 8.91508C0.29412 11.2448 1.23042 13.4719 2.87666 15.1207C4.52291 16.7694 6.7486 17.709 9.07831 17.7389C11.4081 17.7126 13.6352 16.7763 15.2839 15.13C16.9326 13.4838 17.8723 11.2581 17.9021 8.92838C17.8758 6.59862 16.9395 4.37152 15.2932 2.72279C13.647 1.07406 11.4213 0.13441 9.0916 0.104546ZM14.1229 9.55533L9.71428 9.552L9.71095 13.9606L8.45136 13.9596L8.45468 9.55105L4.04609 9.54773L4.04704 8.28813L8.45563 8.29146L8.45895 3.88286L9.71855 3.88381L9.71523 8.29241L14.1238 8.29573L14.1229 9.55533Z" fill="#378B57"/>
</svg>
