<svg width="115" height="39" viewBox="0 0 115 39" fill="none" xmlns="http://www.w3.org/2000/svg">
<path fill-rule="evenodd" clip-rule="evenodd" d="M0 19.5C0 18.9254 0.227872 18.3744 0.633487 17.9682C1.0391 17.5619 1.58923 17.3336 2.16286 17.3336H107.612L93.9991 3.70288C93.593 3.2961 93.3648 2.74438 93.3648 2.1691C93.3648 1.59382 93.593 1.0421 93.9991 0.635314C94.4052 0.228529 94.956 1.35541e-08 95.5304 0C96.1047 -1.35541e-08 96.6556 0.228529 97.0617 0.635314L114.365 17.9662C114.566 18.1675 114.726 18.4065 114.835 18.6697C114.944 18.9329 115 19.215 115 19.5C115 19.785 114.944 20.0671 114.835 20.3303C114.726 20.5935 114.566 20.8325 114.365 21.0338L97.0617 38.3647C96.6556 38.7715 96.1047 39 95.5304 39C94.956 39 94.4052 38.7715 93.9991 38.3647C93.593 37.9579 93.3648 37.4062 93.3648 36.8309C93.3648 36.2556 93.593 35.7039 93.9991 35.2971L107.612 21.6664H2.16286C1.58923 21.6664 1.0391 21.4381 0.633487 21.0319C0.227872 20.6256 0 20.0746 0 19.5Z" fill="black"/>
</svg>