<svg width="66" height="52" viewBox="0 0 66 52" fill="none" xmlns="http://www.w3.org/2000/svg">
<path d="M63.6429 0H2.35714C1.05335 0 0 1.05625 0 2.36364V49.6364C0 50.9438 1.05335 52 2.35714 52H63.6429C64.9467 52 66 50.9438 66 49.6364V2.36364C66 1.05625 64.9467 0 63.6429 0ZM5.30357 5.31818H60.6964V14.1818H5.30357V5.31818ZM60.6964 46.6818H5.30357V20.6818H60.6964V46.6818ZM43.2388 41.9545H55.3929C55.717 41.9545 55.9821 41.6886 55.9821 41.3636V36.0455C55.9821 35.7205 55.717 35.4545 55.3929 35.4545H43.2388C42.9147 35.4545 42.6496 35.7205 42.6496 36.0455V41.3636C42.6496 41.6886 42.9147 41.9545 43.2388 41.9545Z" fill="black"/>
</svg>
