<svg width="90" height="90" viewBox="0 0 90 90" fill="none" xmlns="http://www.w3.org/2000/svg">
<path d="M76.8741 60.9375L76.8741 57.75C76.8741 56.9046 77.2099 56.0939 77.8076 55.4961C78.4054 54.8983 79.2162 54.5625 80.0616 54.5625C80.9069 54.5625 81.7177 54.8983 82.3155 55.4961C82.9132 56.0939 83.2491 56.9046 83.2491 57.75L83.2491 89.625L89.6241 89.625L89.6241 57.75C89.6215 55.2146 88.6132 52.7839 86.8205 50.9911C85.0277 49.1983 82.5969 48.19 80.0616 48.1875C78.415 48.198 76.7997 48.6386 75.3759 49.4657C74.0857 47.3771 72.0307 45.875 69.649 45.2796C67.2673 44.6842 64.7473 45.0425 62.6259 46.2782C61.7685 44.9131 60.5791 43.7876 59.1689 43.0067C57.7587 42.2258 56.1736 41.8149 54.5616 41.8125C53.473 41.8237 52.3946 42.0232 51.3741 42.4022L51.3741 25.875C51.3741 23.3389 50.3666 20.9066 48.5733 19.1133C46.7799 17.32 44.3477 16.3125 41.8116 16.3125C39.2754 16.3125 36.8432 17.32 35.0498 19.1133C33.2565 20.9066 32.2491 23.3389 32.2491 25.875L32.2491 61.2722L25.125 56.3953L25.125 56.3985C23.1785 54.9762 20.7664 54.3418 18.372 54.6225C15.9776 54.9032 13.7777 56.0783 12.2129 57.9123C10.6482 59.7463 9.83418 62.1038 9.93398 64.5125C10.0338 66.9213 11.04 69.2033 12.7511 70.9016L33.2786 89.625L37.5722 84.9139L17.2423 66.369C16.9466 66.075 16.7121 65.7253 16.5523 65.3402C16.3926 64.955 16.3107 64.542 16.3116 64.125C16.3116 63.533 16.4764 62.9528 16.7876 62.4492C17.0988 61.9457 17.5441 61.5387 18.0736 61.274C18.603 61.0093 19.1957 60.8972 19.7853 60.9504C20.3749 61.0035 20.938 61.2198 21.4116 61.575L38.6241 73.3528L38.6241 25.875C38.6241 25.0296 38.9599 24.2189 39.5576 23.6211C40.1554 23.0233 40.9662 22.6875 41.8116 22.6875C42.6569 22.6875 43.4677 23.0233 44.0655 23.6211C44.6632 24.2189 44.9991 25.0296 44.9991 25.875L44.9991 60.9375L51.3741 60.9375L51.3741 51.375C51.3741 50.5296 51.7099 49.7189 52.3076 49.1211C52.9054 48.5233 53.7162 48.1875 54.5616 48.1875C55.4069 48.1875 56.2177 48.5233 56.8155 49.1211C57.4132 49.7189 57.7491 50.5296 57.7491 51.375L57.7491 60.9375L64.1241 60.9375L64.1241 54.5625C64.1241 53.7171 64.4599 52.9064 65.0576 52.3086C65.6554 51.7108 66.4662 51.375 67.3116 51.375C68.1569 51.375 68.9677 51.7108 69.5655 52.3086C70.1632 52.9064 70.4991 53.7171 70.4991 54.5625L70.4991 60.9375L76.8741 60.9375Z" fill="#149747"/>
<path d="M83.25 32.25L64.125 32.25L64.125 25.875L83.25 25.875L83.25 6.75L6.75 6.75L6.75 25.875L19.5 25.875L19.5 32.25L6.75 32.25C5.05976 32.2483 3.43924 31.5761 2.24406 30.3809C1.04888 29.1858 0.376688 27.5652 0.375 25.875L0.375 6.75C0.376688 5.05976 1.04888 3.43924 2.24406 2.24406C3.43924 1.04888 5.05976 0.376688 6.75 0.375L83.25 0.375C84.9402 0.376688 86.5608 1.04888 87.7559 2.24406C88.9511 3.43924 89.6233 5.05976 89.625 6.75L89.625 25.875C89.6233 27.5652 88.9511 29.1858 87.7559 30.3809C86.5608 31.5761 84.9402 32.2483 83.25 32.25V32.25Z" fill="#149747"/>
</svg>
