<svg width="68" height="54" viewBox="0 0 68 54" fill="none" xmlns="http://www.w3.org/2000/svg">
<path d="M60.666 46.9997H7.33268V13.6663H60.666M60.666 6.99967H33.9994L27.3327 0.333008H7.33268C5.56457 0.333008 3.86888 1.03539 2.61864 2.28563C1.36839 3.53587 0.666016 5.23156 0.666016 6.99967V46.9997C0.666016 48.7678 1.36839 50.4635 2.61864 51.7137C3.86888 52.964 5.56457 53.6663 7.33268 53.6663H60.666C62.4341 53.6663 64.1298 52.964 65.3801 51.7137C66.6303 50.4635 67.3327 48.7678 67.3327 46.9997V13.6663C67.3327 11.8982 66.6303 10.2025 65.3801 8.9523C64.1298 7.70205 62.4341 6.99967 60.666 6.99967ZM30.666 16.9997H37.3327V30.333H47.3327L33.9994 43.6663L20.666 30.333H30.666V16.9997Z" fill="black"/>
</svg>
