<svg width="123" height="156" viewBox="0 0 123 156" fill="none" xmlns="http://www.w3.org/2000/svg">
<path d="M64.85 49.9149V12H12V144H110V57.2872H72.2C70.2507 57.2872 68.3812 56.5105 67.0028 55.1279C65.6244 53.7453 64.85 51.8702 64.85 49.9149V49.9149ZM41.4 58.6915C45.2675 58.6915 48.4 61.8335 48.4 65.7128C48.4 69.592 45.2675 72.734 41.4 72.734C37.5325 72.734 34.4 69.592 34.4 65.7128C34.4 61.8335 37.5325 58.6915 41.4 58.6915ZM93.2 110.298H28.8175C27.645 110.298 26.9975 108.946 27.715 108.034L45.18 85.7059C45.311 85.538 45.4783 85.4023 45.6693 85.3089C45.8603 85.2156 46.07 85.1671 46.2825 85.1671C46.495 85.1671 46.7047 85.2156 46.8957 85.3089C47.0867 85.4023 47.254 85.538 47.385 85.7059L54.5775 94.9037L68.1925 77.491C68.3252 77.3229 68.4941 77.1871 68.6865 77.0937C68.879 77.0003 69.09 76.9518 69.3038 76.9518C69.5175 76.9518 69.7285 77.0003 69.921 77.0937C70.1134 77.1871 70.2823 77.3229 70.415 77.491L94.3025 108.034C95.02 108.946 94.3725 110.298 93.2 110.298V110.298Z" fill="black" fill-opacity="0.15"/>
<path d="M121.358 39.1045L83.7588 1.63661C82.7105 0.591965 81.2953 0 79.8102 0H5.59091C2.49844 0 0 2.48973 0 5.57143V150.429C0 153.51 2.49844 156 5.59091 156H117.409C120.502 156 123 153.51 123 150.429V43.0567C123 41.5768 122.406 40.1491 121.358 39.1045ZM77.2244 12.8491L110.106 45.6161H77.2244V12.8491ZM110.42 143.464H12.5795V12.5357H65.3437V50.1429C65.3437 52.0823 66.1169 53.9422 67.493 55.3136C68.8692 56.6849 70.7356 57.4554 72.6818 57.4554H110.42V143.464Z" fill="black"/>
<path d="M68.6623 77.5786L55.0848 94.7867L47.9121 85.6969C47.7815 85.5311 47.6146 85.3969 47.4241 85.3047C47.2336 85.2124 47.0245 85.1645 46.8126 85.1645C46.6007 85.1645 46.3916 85.2124 46.2011 85.3047C46.0106 85.3969 45.8437 85.5311 45.7131 85.6969L28.2962 107.762C28.1351 107.967 28.0351 108.212 28.0077 108.471C27.9803 108.729 28.0266 108.99 28.1413 109.223C28.256 109.457 28.4344 109.653 28.6562 109.791C28.8781 109.928 29.1343 110.001 29.3957 110H93.601C94.7703 110 95.416 108.664 94.7005 107.762L70.8787 77.5786C70.7464 77.4125 70.5779 77.2782 70.386 77.186C70.1941 77.0937 69.9837 77.0458 69.7705 77.0458C69.5573 77.0458 69.3469 77.0937 69.155 77.186C68.9631 77.2782 68.7947 77.4125 68.6623 77.5786V77.5786ZM34.9628 65.9388C34.9628 67.7791 35.6983 69.544 37.0074 70.8452C38.3166 72.1465 40.0921 72.8775 41.9435 72.8775C43.7949 72.8775 45.5705 72.1465 46.8797 70.8452C48.1888 69.544 48.9243 67.7791 48.9243 65.9388C48.9243 64.0985 48.1888 62.3336 46.8797 61.0323C45.5705 59.731 43.7949 59 41.9435 59C40.0921 59 38.3166 59.731 37.0074 61.0323C35.6983 62.3336 34.9628 64.0985 34.9628 65.9388Z" fill="black"/>
</svg>
