<svg width="32" height="43" viewBox="0 0 32 43" fill="none" xmlns="http://www.w3.org/2000/svg">
<path d="M24 21.5H8V26.875H24V21.5ZM31.4167 8.81836L23.2583 0.587891C22.8833 0.209961 22.375 0 21.8417 0H21.3333V10.75H32V10.2377C32 9.70859 31.7917 9.19629 31.4167 8.81836ZM18.6667 11.4219V0H2C0.891667 0 0 0.898633 0 2.01562V40.9844C0 42.1014 0.891667 43 2 43H30C31.1083 43 32 42.1014 32 40.9844V13.4375H20.6667C19.5667 13.4375 18.6667 12.5305 18.6667 11.4219ZM5.33333 6.04688C5.33333 5.67566 5.63167 5.375 6 5.375H12.6667C13.035 5.375 13.3333 5.67566 13.3333 6.04688V7.39062C13.3333 7.76184 13.035 8.0625 12.6667 8.0625H6C5.63167 8.0625 5.33333 7.76184 5.33333 7.39062V6.04688ZM5.33333 11.4219C5.33333 11.0507 5.63167 10.75 6 10.75H12.6667C13.035 10.75 13.3333 11.0507 13.3333 11.4219V12.7656C13.3333 13.1368 13.035 13.4375 12.6667 13.4375H6C5.63167 13.4375 5.33333 13.1368 5.33333 12.7656V11.4219ZM26.6667 36.9531C26.6667 37.3243 26.3683 37.625 26 37.625H19.3333C18.965 37.625 18.6667 37.3243 18.6667 36.9531V35.6094C18.6667 35.2382 18.965 34.9375 19.3333 34.9375H26C26.3683 34.9375 26.6667 35.2382 26.6667 35.6094V36.9531ZM26.6667 20.1562V28.2188C26.6667 28.9612 26.07 29.5625 25.3333 29.5625H6.66667C5.93 29.5625 5.33333 28.9612 5.33333 28.2188V20.1562C5.33333 19.4138 5.93 18.8125 6.66667 18.8125H25.3333C26.07 18.8125 26.6667 19.4138 26.6667 20.1562Z" fill="black"/>
</svg>
