<svg width="108" height="108" viewBox="0 0 108 108" fill="none" xmlns="http://www.w3.org/2000/svg">
<path d="M54 41.5L54 41.5625M79 41.5L79 41.5625M29 41.5L29 41.5625M104 104L104 22.75C104 17.7772 102.025 13.0081 98.5083 9.49175C94.9919 5.97544 90.2228 4 85.25 4L22.75 4C17.7772 4 13.008 5.97544 9.49174 9.49175C5.97543 13.0081 4 17.7772 4 22.75L4 60.25C4 65.2228 5.97543 69.992 9.49174 73.5083C13.008 77.0246 17.7772 79 22.75 79L79 79L104 104Z" stroke="#149747" stroke-width="8" stroke-linecap="round" stroke-linejoin="round"/>
</svg>
