<svg width="90" height="105" viewBox="0 0 90 105" fill="none" xmlns="http://www.w3.org/2000/svg">
<path d="M65 55C51.2 55 40 66.2 40 80C40 93.8 51.2 105 65 105C78.8 105 90 93.8 90 80C90 66.2 78.8 55 65 55ZM73.25 91.75L62.5 81V65H67.5V78.95L76.75 88.2L73.25 91.75V91.75ZM70 10H54.1C52 4.2 46.5 0 40 0C33.5 0 28 4.2 25.9 10H10C4.5 10 0 14.5 0 20V95C0 100.5 4.5 105 10 105H40.55C37.5919 102.129 35.1854 98.7394 33.45 95H10V20H20V35H60V20H70V45.4C73.55 45.9 76.9 46.95 80 48.4V20C80 14.5 75.5 10 70 10ZM40 20C37.25 20 35 17.75 35 15C35 12.25 37.25 10 40 10C42.75 10 45 12.25 45 15C45 17.75 42.75 20 40 20Z" fill="#149747"/>
</svg>
