<svg width="91" height="105" viewBox="0 0 91 105" fill="none" xmlns="http://www.w3.org/2000/svg">
<path d="M70 10H54.1C52 4.2 46.5 0 40 0C33.5 0 28 4.2 25.9 10H10C4.5 10 0 14.5 0 20V95C0 100.5 4.5 105 10 105H40.55C37.5919 102.129 35.1854 98.7394 33.45 95H10V20H20V35H60V20H70V45.4C73.55 45.9 76.9 46.95 80 48.4V20C80 14.5 75.5 10 70 10ZM40 20C37.25 20 35 17.75 35 15C35 12.25 37.25 10 40 10C42.75 10 45 12.25 45 15C45 17.75 42.75 20 40 20Z" fill="#972C14"/>
<path d="M91 79.5C91 93.6667 79.6667 105 65.5 105C51.3333 105 40 93.6667 40 79.5C40 65.3333 51.3333 54 65.5 54C79.6667 54 91 65.3333 91 79.5ZM74 94.12L50.88 71C49.35 73.38 48.5 76.3267 48.5 79.5C48.5 88.9067 56.0933 96.5 65.5 96.5C68.6733 96.5 71.62 95.65 74 94.12ZM82.5 79.5C82.5 70.0933 74.9067 62.5 65.5 62.5C62.3267 62.5 59.38 63.35 57 64.88L80.12 88C81.65 85.62 82.5 82.6733 82.5 79.5Z" fill="#972C14"/>
</svg>
