<svg width="152" height="179" viewBox="0 0 152 179" fill="none" xmlns="http://www.w3.org/2000/svg">
<g clip-path="url(#clip0_269_164)">
<path d="M128.943 13.9327C120.67 4.5192 105.715 0.483398 86.5822 0.483398H31.0547C29.1617 0.483468 27.3308 1.15764 25.8913 2.38469C24.4517 3.61175 23.4978 5.31121 23.2011 7.17752L0.0805062 153.559C-0.379056 156.445 1.85998 159.059 4.79073 159.059H39.0715L47.6809 104.546L47.4137 106.253C48.027 102.4 51.3283 99.5581 55.2375 99.5581H71.5276C103.53 99.5581 128.588 86.5824 135.907 49.0463C136.125 47.9362 136.313 46.8557 136.476 45.8C135.552 45.3116 135.552 45.3116 136.476 45.8C138.655 31.9264 136.461 22.4826 128.943 13.9327" fill="#27346A"/>
<path d="M60.798 40.8023C61.7352 40.3568 62.7602 40.1259 63.7982 40.1266H107.331C112.486 40.1266 117.294 40.4614 121.688 41.1674C122.917 41.3631 124.14 41.5967 125.355 41.868C127.077 42.2473 128.779 42.7116 130.456 43.2591C132.616 43.9792 134.627 44.8179 136.476 45.8C138.655 31.921 136.461 22.4826 128.943 13.9327C120.665 4.5192 105.715 0.483398 86.5822 0.483398H31.0499C27.1401 0.483398 23.8139 3.32487 23.2011 7.17752L0.0805095 153.553C-0.379053 156.445 1.85998 159.055 4.78598 159.055H39.0715L56.9333 45.9826C57.1089 44.8712 57.5524 43.819 58.2256 42.9166C58.8988 42.0142 59.7816 41.2886 60.798 40.8023V40.8023Z" fill="#27346A"/>
<path d="M135.907 49.0471C128.587 86.5778 103.53 99.5589 71.5275 99.5589H55.2326C51.3234 99.5589 48.0215 102.401 47.4141 106.254L36.7035 174.034C36.3033 176.56 38.2603 178.849 40.8205 178.849H69.7183C71.3737 178.849 72.9746 178.259 74.2331 177.185C75.4916 176.112 76.3252 174.625 76.5838 172.993L76.8653 171.523L82.3118 137.065L82.6627 135.161C82.9213 133.529 83.7548 132.042 85.0132 130.969C86.2716 129.896 87.8723 129.305 89.5276 129.305H93.8525C121.846 129.305 143.765 117.952 150.171 85.118C152.845 71.3966 151.461 59.9406 144.388 51.8939C142.243 49.4566 139.579 47.4438 136.475 45.8008C136.307 46.8617 136.125 47.9369 135.907 49.0471V49.0471Z" fill="#2790C3"/>
<path d="M128.816 42.7511C127.674 42.4184 126.522 42.1239 125.361 41.868C124.145 41.6012 122.922 41.3691 121.694 41.1721C117.295 40.4615 112.49 40.126 107.331 40.126H63.8035C62.7647 40.1236 61.7389 40.3565 60.8033 40.807C59.7857 41.2919 58.902 42.0171 58.2285 42.9197C57.5549 43.8224 57.112 44.8753 56.9379 45.9874L47.6861 104.546L47.4189 106.253C48.0275 102.4 51.3288 99.5581 55.2386 99.5581H71.5335C103.535 99.5581 128.593 86.5824 135.913 49.0464C136.131 47.9362 136.313 46.8604 136.481 45.8001C134.628 44.8233 132.621 43.9792 130.461 43.2638C129.916 43.0834 129.367 42.9125 128.816 42.7511" fill="#1F264F"/>
</g>
<defs>
<clipPath id="clip0_269_164">
<rect width="152" height="179" fill="white"/>
</clipPath>
</defs>
</svg>
