<svg width="109" height="127" viewBox="0 0 109 127" fill="none" xmlns="http://www.w3.org/2000/svg">
<path d="M90.25 99.25V117.125H18.75V99.25H9.8125V117.125C9.8125 119.495 10.7541 121.769 12.4302 123.445C14.1063 125.121 16.3796 126.062 18.75 126.062H90.25C92.6204 126.062 94.8937 125.121 96.5698 123.445C98.2459 121.769 99.1875 119.495 99.1875 117.125V99.25H90.25Z" fill="black"/>
<path d="M76.8438 85.8438L70.5249 79.5249L58.9688 91.0811V54.5625H50.0312V91.0811L38.4751 79.5249L32.1562 85.8438L54.5 108.188L76.8438 85.8438ZM108.125 9.875V0.9375H81.3125V45.625H90.25V27.75H103.656V18.8125H90.25V9.875H108.125ZM58.9688 45.625H41.0938V0.9375H58.9688C62.5232 0.941049 65.9311 2.35463 68.4445 4.86802C70.9579 7.38141 72.3715 10.7893 72.375 14.3438V32.2188C72.3715 35.7732 70.9579 39.1811 68.4445 41.6945C65.9311 44.2079 62.5232 45.6215 58.9688 45.625V45.625ZM50.0312 36.6875H58.9688C60.1536 36.6863 61.2895 36.2151 62.1273 35.3773C62.9651 34.5395 63.4363 33.4036 63.4375 32.2188V14.3438C63.4363 13.1589 62.9651 12.023 62.1273 11.1852C61.2895 10.3474 60.1536 9.87618 58.9688 9.875H50.0312V36.6875ZM23.2188 0.9375H0.875V45.625H9.8125V32.2188H23.2188C25.588 32.2152 27.8593 31.2724 29.5346 29.5971C31.2099 27.9218 32.1527 25.6505 32.1562 23.2812V9.875C32.1539 7.50535 31.2115 5.23344 29.5359 3.55785C27.8603 1.88225 25.5884 0.939866 23.2188 0.9375V0.9375ZM9.8125 23.2812V9.875H23.2188L23.2232 23.2812H9.8125Z" fill="black"/>
</svg>
