<svg width="51" height="51" viewBox="0 0 51 51" fill="none" xmlns="http://www.w3.org/2000/svg">
<path d="M51 29.6V26H40V44H43.6667V36.8H49.1667V33.2H43.6667V29.6H51ZM30.8333 44H23.5V26H30.8333C32.2916 26.0014 33.6897 26.5708 34.7208 27.5832C35.7519 28.5956 36.3319 29.9683 36.3333 31.4V38.6C36.3319 40.0317 35.7519 41.4044 34.7208 42.4168C33.6897 43.4292 32.2916 43.9986 30.8333 44ZM27.1667 40.4H30.8333C31.3194 40.3995 31.7854 40.2097 32.1292 39.8723C32.4729 39.5348 32.6662 39.0772 32.6667 38.6V31.4C32.6662 30.9228 32.4729 30.4652 32.1292 30.1277C31.7854 29.7903 31.3194 29.6005 30.8333 29.6H27.1667V40.4ZM16.1667 26H7V44H10.6667V38.6H16.1667C17.1387 38.5986 18.0705 38.2188 18.7578 37.544C19.4451 36.8692 19.8319 35.9543 19.8333 35V29.6C19.8324 28.6455 19.4457 27.7304 18.7583 27.0555C18.0709 26.3805 17.1388 26.001 16.1667 26V26ZM10.6667 35V29.6H16.1667L16.1685 35H10.6667Z" fill="black"/>
<path d="M35.9994 21.8575V14.5719C36.0058 14.3325 35.9608 14.0946 35.8676 13.8745C35.7743 13.6544 35.6351 13.4573 35.4594 13.2969L22.8596 0.547041C22.7012 0.369171 22.5064 0.228205 22.2889 0.133868C22.0714 0.0395314 21.8362 -0.00593019 21.5996 0.000619352H3.59994C2.64605 0.00350214 1.73205 0.388223 1.05755 1.07076C0.383042 1.7533 0.00284886 2.67818 0 3.64343V47.3572C0 48.3233 0.379278 49.2499 1.0544 49.933C1.72952 50.6162 2.64518 51 3.59994 51H32.3995V47.3572H3.59994V3.64343H17.9997V14.5719C18.0026 15.5371 18.3827 16.462 19.0573 17.1445C19.7318 17.8271 20.6458 18.2118 21.5996 18.2147H32.3995V21.8575H35.9994ZM21.5996 14.5719V4.37199L31.6795 14.5719H21.5996Z" fill="black"/>
</svg>
