<svg width="45" height="40" viewBox="0 0 45 40" fill="none" xmlns="http://www.w3.org/2000/svg">
<path fill-rule="evenodd" clip-rule="evenodd" d="M9.60915 13.6817L15.8006 20.0014H15.8033L9.60915 26.3183C7.32541 25.3299 4.77595 25.1829 2.39771 25.9027C1.55291 26.1584 0.748399 26.5178 0 26.969V13.031C0.7484 13.4823 1.55291 13.8417 2.39771 14.0973C4.77595 14.8171 7.32541 14.6702 9.60915 13.6817ZM1.45131 0H9.41904C10.2929 0.997345 10.7796 2.2912 10.7796 3.63626C10.7796 5.08303 10.2165 6.47054 9.21424 7.49356C8.21197 8.51658 6.8526 9.0913 5.43518 9.0913C4.01776 9.0913 2.65839 8.51658 1.65612 7.49356C0.653851 6.47054 0.0907866 5.08303 0.0907866 3.63626C0.0907867 2.2912 0.577474 0.997345 1.45131 0ZM15.5135 0H35.3916L21.4684 14.219L15.2769 7.89665C16.2453 5.56563 16.3893 2.96339 15.6841 0.535911C15.6317 0.355423 15.5748 0.176736 15.5135 0ZM44.4444 2.33448L27.1334 20.0014L44.4444 37.6683V2.33448ZM35.3889 40L21.4684 25.7837L15.2769 32.1034C16.2453 34.4344 16.3893 37.0367 15.6841 39.4641C15.6317 39.6446 15.5748 39.8233 15.5136 40H35.3889ZM9.42147 40C10.2938 39.003 10.7796 37.7103 10.7796 36.3665C10.7796 34.9197 10.2165 33.5322 9.21424 32.5092C8.21197 31.4862 6.8526 30.9115 5.43518 30.9115C4.01776 30.9115 2.65839 31.4862 1.65612 32.5092C0.65385 33.5322 0.0907853 34.9197 0.0907852 36.3665C0.0907851 37.7103 0.576572 39.003 1.44889 40H9.42147Z" fill="black"/>
</svg>
