<svg width="41" height="45" viewBox="0 0 41 45" fill="none" xmlns="http://www.w3.org/2000/svg">
<path d="M7.25 44.5832H35.9583C37.1297 44.5832 38.2531 44.1178 39.0814 43.2896C39.9097 42.4613 40.375 41.3379 40.375 40.1665V4.83317C40.375 3.6618 39.9097 2.5384 39.0814 1.71012C38.2531 0.88183 37.1297 0.416504 35.9583 0.416504H5.04167C3.87029 0.416504 2.7469 0.88183 1.91861 1.71012C1.09033 2.5384 0.625 3.6618 0.625 4.83317V40.1665C0.625 41.3379 1.09033 42.4613 1.91861 43.2896C2.7469 44.1178 3.87029 44.5832 5.04167 44.5832H7.25ZM20.5 7.0393C24.1371 7.0393 27.125 10.0228 27.125 13.6643C27.125 17.3036 24.1371 20.2915 20.5 20.2915C16.8629 20.2915 13.875 17.3036 13.875 13.6643C13.875 10.0228 16.8629 7.0393 20.5 7.0393V7.0393ZM7.25 34.0936C7.25 29.1933 13.2235 24.1561 20.5 24.1561C27.7765 24.1561 33.75 29.1933 33.75 34.0936V35.7498H7.25V34.0936Z" fill="black"/>
</svg>
